<?xml version="1.0" encoding="UTF-8"?>
<svg width="25.769mm" height="59.004mm" version="1.1" viewBox="0 0 25.769 59.004" xmlns="http://www.w3.org/2000/svg" xmlns:xlink="http://www.w3.org/1999/xlink">
 <defs>
  <linearGradient id="linearGradient894">
   <stop style="stop-color:#2a2a2a" offset="0"/>
   <stop style="stop-color:#fff" offset="1"/>
  </linearGradient>
  <linearGradient id="linearGradient3233" x1="155.28" x2="155.18" y1="49.061" y2="57.013" gradientTransform="translate(-27.939 68.587)" gradientUnits="userSpaceOnUse" xlink:href="#linearGradient1218"/>
  <linearGradient id="linearGradient1218">
   <stop style="stop-color:#101010" offset="0"/>
   <stop style="stop-color:#9c9c9c;stop-opacity:0" offset="1"/>
  </linearGradient>
  <linearGradient id="linearGradient3235" x1="569.4" x2="573.22" y1="219.93" y2="184.05" gradientTransform="matrix(.26458 0 0 .26458 -27.939 68.587)" gradientUnits="userSpaceOnUse" xlink:href="#linearGradient1210"/>
  <linearGradient id="linearGradient1210">
   <stop style="stop-color:#b6b6b6" offset="0"/>
   <stop style="stop-color:#121212" offset="1"/>
  </linearGradient>
  <linearGradient id="linearGradient1083">
   <stop style="stop-color:#060404;stop-opacity:0" offset="0"/>
   <stop style="stop-color:#fff;stop-opacity:.46789" offset="1"/>
  </linearGradient>
  <linearGradient id="linearGradient3245" x1="157.44" x2="157.44" y1="50.289" y2="50.885" gradientTransform="matrix(.95 0 0 .61538 7.8834 20.059)" gradientUnits="userSpaceOnUse" xlink:href="#linearGradient894"/>
  <linearGradient id="linearGradient3247" x1="157.44" x2="157.44" y1="50.289" y2="50.885" gradientTransform="matrix(.95 0 0 .61538 7.8834 20.326)" gradientUnits="userSpaceOnUse" xlink:href="#linearGradient894"/>
  <linearGradient id="linearGradient3249" x1="157.44" x2="157.44" y1="50.289" y2="50.885" gradientTransform="matrix(.95 0 0 .61538 7.8834 20.859)" gradientUnits="userSpaceOnUse" xlink:href="#linearGradient894"/>
  <linearGradient id="linearGradient3251" x1="157.44" x2="157.44" y1="50.289" y2="50.885" gradientTransform="matrix(.95 0 0 .61538 7.8834 21.66)" gradientUnits="userSpaceOnUse" xlink:href="#linearGradient894"/>
  <linearGradient id="linearGradient3253" x1="157.44" x2="157.44" y1="50.289" y2="50.885" gradientTransform="matrix(.95 0 0 .61538 7.8834 21.393)" gradientUnits="userSpaceOnUse" xlink:href="#linearGradient894"/>
  <linearGradient id="linearGradient3255" x1="157.44" x2="157.44" y1="50.289" y2="50.885" gradientTransform="matrix(.95 0 0 .61538 7.8834 22.727)" gradientUnits="userSpaceOnUse" xlink:href="#linearGradient894"/>
  <linearGradient id="linearGradient3257" x1="157.44" x2="157.44" y1="50.289" y2="50.885" gradientTransform="matrix(.95 0 0 .61538 7.8834 22.194)" gradientUnits="userSpaceOnUse" xlink:href="#linearGradient894"/>
  <linearGradient id="linearGradient3259" x1="157.44" x2="157.44" y1="50.289" y2="50.885" gradientTransform="matrix(.95 0 0 .61538 7.8834 20.592)" gradientUnits="userSpaceOnUse" xlink:href="#linearGradient894"/>
  <linearGradient id="linearGradient3261" x1="157.44" x2="157.44" y1="50.289" y2="50.885" gradientTransform="matrix(.95 0 0 .61538 7.8834 23.261)" gradientUnits="userSpaceOnUse" xlink:href="#linearGradient894"/>
  <linearGradient id="linearGradient3263" x1="157.44" x2="157.44" y1="50.289" y2="50.885" gradientTransform="matrix(.95 0 0 .61538 7.8834 23.795)" gradientUnits="userSpaceOnUse" xlink:href="#linearGradient894"/>
  <linearGradient id="linearGradient3265" x1="157.44" x2="157.44" y1="50.289" y2="50.885" gradientTransform="matrix(.95 0 0 .61538 7.8834 24.329)" gradientUnits="userSpaceOnUse" xlink:href="#linearGradient894"/>
  <linearGradient id="linearGradient3267" x1="157.44" x2="157.44" y1="50.289" y2="50.885" gradientTransform="matrix(.95 0 0 .61538 7.8834 24.596)" gradientUnits="userSpaceOnUse" xlink:href="#linearGradient894"/>
  <linearGradient id="linearGradient3269" x1="157.44" x2="157.44" y1="50.289" y2="50.885" gradientTransform="matrix(.95 0 0 .61538 7.8834 24.062)" gradientUnits="userSpaceOnUse" xlink:href="#linearGradient894"/>
  <linearGradient id="linearGradient3271" x1="157.44" x2="157.44" y1="50.289" y2="50.885" gradientTransform="matrix(.95 0 0 .61538 7.8834 23.528)" gradientUnits="userSpaceOnUse" xlink:href="#linearGradient894"/>
  <linearGradient id="linearGradient3273" x1="157.44" x2="157.44" y1="50.289" y2="50.885" gradientTransform="matrix(.95 0 0 .61538 7.8834 22.994)" gradientUnits="userSpaceOnUse" xlink:href="#linearGradient894"/>
  <linearGradient id="linearGradient3275" x1="157.44" x2="157.44" y1="50.289" y2="50.885" gradientTransform="matrix(.95 0 0 .61538 7.8834 22.461)" gradientUnits="userSpaceOnUse" xlink:href="#linearGradient894"/>
  <linearGradient id="linearGradient3277" x1="157.44" x2="157.44" y1="50.289" y2="50.885" gradientTransform="matrix(.95 0 0 .61538 7.8834 21.927)" gradientUnits="userSpaceOnUse" xlink:href="#linearGradient894"/>
  <linearGradient id="linearGradient3279" x1="157.44" x2="157.44" y1="50.289" y2="50.885" gradientTransform="matrix(.95 0 0 .61538 7.8834 21.126)" gradientUnits="userSpaceOnUse" xlink:href="#linearGradient894"/>
  <linearGradient id="linearGradient2955" x1="155.28" x2="155.18" y1="49.061" y2="57.013" gradientTransform="translate(-27.939 56.68)" gradientUnits="userSpaceOnUse" xlink:href="#linearGradient1218"/>
  <linearGradient id="linearGradient2957" x1="569.4" x2="573.22" y1="219.93" y2="184.05" gradientTransform="matrix(.26458 0 0 .26458 -27.939 56.68)" gradientUnits="userSpaceOnUse" xlink:href="#linearGradient1210"/>
  <linearGradient id="linearGradient2677" x1="155.28" x2="155.18" y1="49.061" y2="57.013" gradientTransform="translate(-27.939 20.962)" gradientUnits="userSpaceOnUse" xlink:href="#linearGradient1218"/>
  <linearGradient id="linearGradient2679" x1="569.4" x2="573.22" y1="219.93" y2="184.05" gradientTransform="matrix(.26458 0 0 .26458 -27.939 20.962)" gradientUnits="userSpaceOnUse" xlink:href="#linearGradient1210"/>
  <linearGradient id="linearGradient2435" x1="155.28" x2="155.18" y1="49.061" y2="57.013" gradientTransform="translate(-27.939 32.868)" gradientUnits="userSpaceOnUse" xlink:href="#linearGradient1218"/>
  <linearGradient id="linearGradient2437" x1="569.4" x2="573.22" y1="219.93" y2="184.05" gradientTransform="matrix(.26458 0 0 .26458 -27.939 32.868)" gradientUnits="userSpaceOnUse" xlink:href="#linearGradient1210"/>
  <linearGradient id="linearGradient1220" x1="155.28" x2="155.18" y1="49.061" y2="57.013" gradientTransform="translate(-27.939 44.774)" gradientUnits="userSpaceOnUse" xlink:href="#linearGradient1218"/>
  <linearGradient id="linearGradient1212" x1="569.4" x2="573.22" y1="219.93" y2="184.05" gradientTransform="matrix(.26458 0 0 .26458 -27.939 44.774)" gradientUnits="userSpaceOnUse" xlink:href="#linearGradient1210"/>
  <linearGradient id="linearGradient9280" x1="134.84" x2="134.61" y1="27.779" y2="37.602" gradientTransform="matrix(2.5935 0 0 2.4133 -330.69 110.78)" gradientUnits="userSpaceOnUse" xlink:href="#linearGradient1083"/>
  <linearGradient id="linearGradient9280-6" x1="134.84" x2="134.61" y1="27.779" y2="37.602" gradientTransform="matrix(.6862 0 0 .63853 18.632 97.992)" gradientUnits="userSpaceOnUse" xlink:href="#linearGradient1083"/>
  <linearGradient id="linearGradient9280-0" x1="134.84" x2="134.61" y1="27.779" y2="37.602" gradientTransform="matrix(.6862 0 0 .63853 22.762 97.992)" gradientUnits="userSpaceOnUse" xlink:href="#linearGradient1083"/>
  <linearGradient id="linearGradient9280-62" x1="134.84" x2="134.61" y1="27.779" y2="37.602" gradientTransform="matrix(.6862 0 0 .63853 26.879 97.992)" gradientUnits="userSpaceOnUse" xlink:href="#linearGradient1083"/>
  <linearGradient id="linearGradient9280-9" x1="134.84" x2="134.61" y1="27.779" y2="37.602" gradientTransform="matrix(.6862 0 0 .63853 14.516 86.091)" gradientUnits="userSpaceOnUse" xlink:href="#linearGradient1083"/>
  <linearGradient id="linearGradient9280-6-2" x1="134.84" x2="134.61" y1="27.779" y2="37.602" gradientTransform="matrix(.6862 0 0 .63853 18.632 86.091)" gradientUnits="userSpaceOnUse" xlink:href="#linearGradient1083"/>
  <linearGradient id="linearGradient9280-0-3" x1="134.84" x2="134.61" y1="27.779" y2="37.602" gradientTransform="matrix(.6862 0 0 .63853 22.762 86.091)" gradientUnits="userSpaceOnUse" xlink:href="#linearGradient1083"/>
  <linearGradient id="linearGradient9280-62-7" x1="134.84" x2="134.61" y1="27.779" y2="37.602" gradientTransform="matrix(.6862 0 0 .63853 26.879 86.091)" gradientUnits="userSpaceOnUse" xlink:href="#linearGradient1083"/>
  <linearGradient id="linearGradient9280-9-6" x1="134.84" x2="134.61" y1="27.779" y2="37.602" gradientTransform="matrix(.6862 0 0 .63853 14.516 74.204)" gradientUnits="userSpaceOnUse" xlink:href="#linearGradient1083"/>
  <linearGradient id="linearGradient9280-6-2-9" x1="134.84" x2="134.61" y1="27.779" y2="37.602" gradientTransform="matrix(.6862 0 0 .63853 18.632 74.204)" gradientUnits="userSpaceOnUse" xlink:href="#linearGradient1083"/>
  <linearGradient id="linearGradient9280-0-3-3" x1="134.84" x2="134.61" y1="27.779" y2="37.602" gradientTransform="matrix(.6862 0 0 .63853 22.762 74.204)" gradientUnits="userSpaceOnUse" xlink:href="#linearGradient1083"/>
  <linearGradient id="linearGradient9280-62-7-1" x1="134.84" x2="134.61" y1="27.779" y2="37.602" gradientTransform="matrix(.6862 0 0 .63853 26.879 74.204)" gradientUnits="userSpaceOnUse" xlink:href="#linearGradient1083"/>
  <linearGradient id="linearGradient9280-9-61" x1="134.84" x2="134.61" y1="27.779" y2="37.602" gradientTransform="matrix(.6862 0 0 .63853 14.516 62.278)" gradientUnits="userSpaceOnUse" xlink:href="#linearGradient1083"/>
  <linearGradient id="linearGradient9280-6-2-3" x1="134.84" x2="134.61" y1="27.779" y2="37.602" gradientTransform="matrix(.6862 0 0 .63853 18.632 62.278)" gradientUnits="userSpaceOnUse" xlink:href="#linearGradient1083"/>
  <linearGradient id="linearGradient9280-0-3-2" x1="134.84" x2="134.61" y1="27.779" y2="37.602" gradientTransform="matrix(.6862 0 0 .63853 22.762 62.278)" gradientUnits="userSpaceOnUse" xlink:href="#linearGradient1083"/>
  <linearGradient id="linearGradient9280-62-7-0" x1="134.84" x2="134.61" y1="27.779" y2="37.602" gradientTransform="matrix(.6862 0 0 .63853 26.879 62.278)" gradientUnits="userSpaceOnUse" xlink:href="#linearGradient1083"/>
  <linearGradient id="linearGradient9280-9-9" x1="134.84" x2="134.61" y1="27.779" y2="37.602" gradientTransform="matrix(.6862 0 0 .63853 14.516 50.377)" gradientUnits="userSpaceOnUse" xlink:href="#linearGradient1083"/>
  <linearGradient id="linearGradient9280-6-2-4" x1="134.84" x2="134.61" y1="27.779" y2="37.602" gradientTransform="matrix(.6862 0 0 .63853 18.632 50.377)" gradientUnits="userSpaceOnUse" xlink:href="#linearGradient1083"/>
  <linearGradient id="linearGradient9280-0-3-5" x1="134.84" x2="134.61" y1="27.779" y2="37.602" gradientTransform="matrix(.6862 0 0 .63853 22.762 50.377)" gradientUnits="userSpaceOnUse" xlink:href="#linearGradient1083"/>
  <linearGradient id="linearGradient9280-62-7-2" x1="134.84" x2="134.61" y1="27.779" y2="37.602" gradientTransform="matrix(.6862 0 0 .63853 26.879 50.377)" gradientUnits="userSpaceOnUse" xlink:href="#linearGradient1083"/>
 </defs>
 <g transform="translate(-102.01 -68.683)">
  <rect x="102.11" y="92.595" width="21.889" height="11.179" style="fill-opacity:.99087;fill:#5b5b5b;paint-order:markers fill stroke"/>
  <rect x="103.35" y="93.835" width="19.387" height="8.6996" style="fill:url(#linearGradient1220);paint-order:markers fill stroke"/>
  <path d="m103.35 93.835v8.6997h19.41l-1.6836-1.6371-16.043-5.4255z" style="fill:url(#linearGradient1212);paint-order:markers fill stroke"/>
  <rect x="104.59" y="95.074" width="16.873" height="6.2207" style="fill-opacity:.99087;paint-order:markers fill stroke"/>
  <path d="m105.07 95.454a1.9575 6.6297 0 0 0-0.17518 2.7264 1.9575 6.6297 0 0 0 0.17777 2.7409h3.56a1.9575 6.6297 0 0 0 0.17725-2.7409 1.9575 6.6297 0 0 0-0.17622-2.7264z" style="fill-opacity:.99087;fill:#303030;paint-order:markers fill stroke"/>
  <g transform="translate(-28.038 44.774)" style="fill-opacity:.76606;fill:#fff" aria-label="0">
   <path d="m134.89 51.459q0.5046 0 0.78888 0.36009 0.33877 0.42642 0.33877 1.4143 0 0.98551-0.34114 1.4167-0.28191 0.35535-0.78651 0.35535-0.50697 0-0.81731-0.38852-0.31033-0.39089-0.31033-1.3906 0-0.98077 0.34113-1.4119 0.28191-0.35535 0.78651-0.35535zm0 0.55198q-0.12082 0-0.21558 0.07818-0.0948 0.07581-0.14688 0.2748-0.0687 0.25822-0.0687 0.86942 0 0.6112 0.0616 0.841 0.0616 0.22742 0.15398 0.30323 0.0948 0.07581 0.21558 0.07581 0.12082 0 0.21558-0.07581 0.0948-0.07818 0.14688-0.27717 0.0687-0.25585 0.0687-0.86706 0-0.6112-0.0616-0.83863-0.0616-0.22979-0.15636-0.3056-0.0924-0.07818-0.21321-0.07818z" style="fill-opacity:.76606;fill:#fff;stroke-width:.1604"/>
  </g>
  <path d="m105.07 95.454a1.9575 6.6297 0 0 0-0.17363 2.6133 4.5575 2.0906 0 0 0 1.9616 0.20619 4.5575 2.0906 0 0 0 1.9508-0.20361 1.9575 6.6297 0 0 0-0.17518-2.6159z" style="fill:url(#linearGradient9280-9-6);paint-order:markers fill stroke"/>
  <path d="m109.18 95.454a1.9575 6.6297 0 0 0-0.17518 2.7264 1.9575 6.6297 0 0 0 0.17777 2.7409h3.56a1.9575 6.6297 0 0 0 0.17725-2.7409 1.9575 6.6297 0 0 0-0.17622-2.7264z" style="fill-opacity:.99087;fill:#303030;paint-order:markers fill stroke"/>
  <g transform="translate(-23.907 44.831)" style="fill-opacity:.76606;fill:#fff" aria-label="0">
   <path d="m134.89 51.459q0.5046 0 0.78888 0.36009 0.33877 0.42642 0.33877 1.4143 0 0.98551-0.34114 1.4167-0.28191 0.35535-0.78651 0.35535-0.50697 0-0.81731-0.38852-0.31033-0.39089-0.31033-1.3906 0-0.98077 0.34113-1.4119 0.28191-0.35535 0.78651-0.35535zm0 0.55198q-0.12082 0-0.21558 0.07818-0.0948 0.07581-0.14688 0.2748-0.0687 0.25822-0.0687 0.86942 0 0.6112 0.0616 0.841 0.0616 0.22742 0.15398 0.30323 0.0948 0.07581 0.21558 0.07581 0.12082 0 0.21558-0.07581 0.0948-0.07818 0.14688-0.27717 0.0687-0.25585 0.0687-0.86706 0-0.6112-0.0616-0.83863-0.0616-0.22979-0.15636-0.3056-0.0924-0.07818-0.21321-0.07818z" style="fill-opacity:.76606;fill:#fff;stroke-width:.1604"/>
  </g>
  <path d="m113.31 95.454a1.9575 6.6297 0 0 0-0.17518 2.7264 1.9575 6.6297 0 0 0 0.17777 2.7409h3.56a1.9575 6.6297 0 0 0 0.17725-2.7409 1.9575 6.6297 0 0 0-0.17622-2.7264z" style="fill-opacity:.99087;fill:#303030;paint-order:markers fill stroke"/>
  <g transform="translate(-19.817 44.775)" style="fill-opacity:.76606;fill:#fff" aria-label="0">
   <path d="m134.89 51.459q0.5046 0 0.78888 0.36009 0.33877 0.42642 0.33877 1.4143 0 0.98551-0.34114 1.4167-0.28191 0.35535-0.78651 0.35535-0.50697 0-0.81731-0.38852-0.31033-0.39089-0.31033-1.3906 0-0.98077 0.34113-1.4119 0.28191-0.35535 0.78651-0.35535zm0 0.55198q-0.12082 0-0.21558 0.07818-0.0948 0.07581-0.14688 0.2748-0.0687 0.25822-0.0687 0.86942 0 0.6112 0.0616 0.841 0.0616 0.22742 0.15398 0.30323 0.0948 0.07581 0.21558 0.07581 0.12082 0 0.21558-0.07581 0.0948-0.07818 0.14688-0.27717 0.0687-0.25585 0.0687-0.86706 0-0.6112-0.0616-0.83863-0.0616-0.22979-0.15636-0.3056-0.0924-0.07818-0.21321-0.07818z" style="fill-opacity:.76606;fill:#fff;stroke-width:.1604"/>
  </g>
  <path d="m117.43 95.454a1.9575 6.6297 0 0 0-0.17518 2.7264 1.9575 6.6297 0 0 0 0.17777 2.7409h3.56a1.9575 6.6297 0 0 0 0.17725-2.7409 1.9575 6.6297 0 0 0-0.17622-2.7264z" style="fill-opacity:.99087;fill:#303030;paint-order:markers fill stroke"/>
  <g transform="translate(-15.686 44.832)" style="fill-opacity:.76606;fill:#fff" aria-label="0">
   <path d="m134.89 51.459q0.5046 0 0.78888 0.36009 0.33877 0.42642 0.33877 1.4143 0 0.98551-0.34114 1.4167-0.28191 0.35535-0.78651 0.35535-0.50697 0-0.81731-0.38852-0.31033-0.39089-0.31033-1.3906 0-0.98077 0.34113-1.4119 0.28191-0.35535 0.78651-0.35535zm0 0.55198q-0.12082 0-0.21558 0.07818-0.0948 0.07581-0.14688 0.2748-0.0687 0.25822-0.0687 0.86942 0 0.6112 0.0616 0.841 0.0616 0.22742 0.15398 0.30323 0.0948 0.07581 0.21558 0.07581 0.12082 0 0.21558-0.07581 0.0948-0.07818 0.14688-0.27717 0.0687-0.25585 0.0687-0.86706 0-0.6112-0.0616-0.83863-0.0616-0.22979-0.15636-0.3056-0.0924-0.07818-0.21321-0.07818z" style="fill-opacity:.76606;fill:#fff;stroke-width:.1604"/>
  </g>
  <g transform="matrix(.50845 0 0 .96347 45.786 46.94)">
   <path d="m153.83 50.873 7.238 0.35079v4.4434l-7.238 0.3274v-5.1216" style="paint-order:markers fill stroke"/>
   <path d="m153.83 50.873 7.238 0.35079v0.17597l-7.238-0.32393v-0.20283" style="fill:url(#linearGradient3245);opacity:.838;paint-order:markers fill stroke"/>
   <path d="m153.83 51.163 7.238 0.31248v0.17597l-7.238-0.28562v-0.20283" style="fill:url(#linearGradient3247);opacity:.838;paint-order:markers fill stroke"/>
   <path d="m153.83 51.741 7.238 0.23585v0.17597l-7.238-0.20899v-0.20283" style="fill:url(#linearGradient3249);opacity:.838;paint-order:markers fill stroke"/>
   <path d="m153.83 52.609 7.238 0.12091v0.17598s-7.238-0.09405-7.238-0.09405v-0.20283" style="fill:url(#linearGradient3251);opacity:.838;paint-order:markers fill stroke"/>
   <path d="m153.83 52.32 7.238 0.15922v0.17597l-7.238-0.13236v-0.20283" style="fill:url(#linearGradient3253);opacity:.838;paint-order:markers fill stroke"/>
   <path d="m153.83 53.767 7.238-0.03235v0.17597l-7.238 0.05921v-0.20283" style="fill:url(#linearGradient3255);opacity:.838;paint-order:markers fill stroke"/>
   <path d="m153.83 53.188 7.238 0.04428v0.17597l-7.238-0.01742v-0.20283" style="fill:url(#linearGradient3257);opacity:.838;paint-order:markers fill stroke"/>
   <path d="m153.83 51.452 7.238 0.27416v0.17597l-7.238-0.2473v-0.20283" style="fill:url(#linearGradient3259);opacity:.838;paint-order:markers fill stroke"/>
   <path d="m153.83 54.345 7.238-0.10898v0.17597l-7.238 0.13584v-0.20283" style="fill:url(#linearGradient3261);opacity:.838;paint-order:markers fill stroke"/>
   <path d="m153.83 54.924 7.238-0.1856v0.17597l-7.238 0.21246v-0.20283" style="fill:url(#linearGradient3263);opacity:.838;paint-order:markers fill stroke"/>
   <path d="m153.83 55.503 7.238-0.26223v0.17598l-7.238 0.28909v-0.20284" style="fill:url(#linearGradient3265);opacity:.838;paint-order:markers fill stroke"/>
   <path d="m153.83 55.792 7.238-0.30055v0.17597l-7.238 0.3274v-0.20283" style="fill:url(#linearGradient3267);opacity:.838;paint-order:markers fill stroke"/>
   <path d="m153.83 55.213 7.238-0.22392v0.17597l-7.238 0.25078v-0.20283" style="fill:url(#linearGradient3269);opacity:.838;paint-order:markers fill stroke"/>
   <path d="m153.83 54.635 7.238-0.14729v0.17597l-7.238 0.17415v-0.20283" style="fill:url(#linearGradient3271);opacity:.838;paint-order:markers fill stroke"/>
   <path d="m153.83 54.056 7.238-0.07066v0.17597l-7.238 0.09752v-0.20283" style="fill:url(#linearGradient3273);opacity:.838;paint-order:markers fill stroke"/>
   <path d="m153.83 53.477 7.238 6e-3v0.17597l-7.238 0.02089v-0.20283" style="fill:url(#linearGradient3275);opacity:.838;paint-order:markers fill stroke"/>
   <path d="m153.83 52.899s7.238 0.08259 7.238 0.08259v0.17597l-7.238-0.05573v-0.20283" style="fill:url(#linearGradient3277);opacity:.838;paint-order:markers fill stroke"/>
   <path d="m153.83 52.031 7.238 0.19754v0.17597l-7.238-0.17068v-0.20283" style="fill:url(#linearGradient3279);opacity:.838;paint-order:markers fill stroke"/>
  </g>
  <rect x="102.11" y="80.689" width="21.889" height="11.179" style="fill-opacity:.99087;fill:#5b5b5b;paint-order:markers fill stroke"/>
  <rect x="103.35" y="81.929" width="19.387" height="8.6996" style="fill:url(#linearGradient2435);paint-order:markers fill stroke"/>
  <path d="m103.35 81.928v8.6997h19.41l-1.6836-1.6371-16.043-5.4255z" style="fill:url(#linearGradient2437);paint-order:markers fill stroke"/>
  <rect x="104.59" y="83.168" width="16.873" height="6.2207" style="fill-opacity:.99087;paint-order:markers fill stroke"/>
  <path d="m105.07 83.528a1.9575 6.6297 0 0 0-0.17518 2.7264 1.9575 6.6297 0 0 0 0.17777 2.7409h3.56a1.9575 6.6297 0 0 0 0.17725-2.7409 1.9575 6.6297 0 0 0-0.17622-2.7264z" style="fill-opacity:.99087;fill:#303030;paint-order:markers fill stroke"/>
  <g transform="translate(-28.038 32.868)" style="fill-opacity:.76606;fill:#fff" aria-label="0">
   <path d="m134.89 51.459q0.5046 0 0.78888 0.36009 0.33877 0.42642 0.33877 1.4143 0 0.98551-0.34114 1.4167-0.28191 0.35535-0.78651 0.35535-0.50697 0-0.81731-0.38852-0.31033-0.39089-0.31033-1.3906 0-0.98077 0.34113-1.4119 0.28191-0.35535 0.78651-0.35535zm0 0.55198q-0.12082 0-0.21558 0.07818-0.0948 0.07581-0.14688 0.2748-0.0687 0.25822-0.0687 0.86942 0 0.6112 0.0616 0.841 0.0616 0.22742 0.15398 0.30323 0.0948 0.07581 0.21558 0.07581 0.12082 0 0.21558-0.07581 0.0948-0.07818 0.14688-0.27717 0.0687-0.25585 0.0687-0.86706 0-0.6112-0.0616-0.83863-0.0616-0.22979-0.15636-0.3056-0.0924-0.07818-0.21321-0.07818z" style="fill-opacity:.76606;fill:#fff;stroke-width:.1604"/>
  </g>
  <path d="m105.07 83.528a1.9575 6.6297 0 0 0-0.17363 2.6133 4.5575 2.0906 0 0 0 1.9616 0.20619 4.5575 2.0906 0 0 0 1.9508-0.20361 1.9575 6.6297 0 0 0-0.17518-2.6159z" style="fill:url(#linearGradient9280-9-61);paint-order:markers fill stroke"/>
  <path d="m109.18 83.528a1.9575 6.6297 0 0 0-0.17518 2.7264 1.9575 6.6297 0 0 0 0.17777 2.7409h3.56a1.9575 6.6297 0 0 0 0.17725-2.7409 1.9575 6.6297 0 0 0-0.17622-2.7264z" style="fill-opacity:.99087;fill:#303030;paint-order:markers fill stroke"/>
  <g transform="translate(-23.907 32.925)" style="fill-opacity:.76606;fill:#fff" aria-label="0">
   <path d="m134.89 51.459q0.5046 0 0.78888 0.36009 0.33877 0.42642 0.33877 1.4143 0 0.98551-0.34114 1.4167-0.28191 0.35535-0.78651 0.35535-0.50697 0-0.81731-0.38852-0.31033-0.39089-0.31033-1.3906 0-0.98077 0.34113-1.4119 0.28191-0.35535 0.78651-0.35535zm0 0.55198q-0.12082 0-0.21558 0.07818-0.0948 0.07581-0.14688 0.2748-0.0687 0.25822-0.0687 0.86942 0 0.6112 0.0616 0.841 0.0616 0.22742 0.15398 0.30323 0.0948 0.07581 0.21558 0.07581 0.12082 0 0.21558-0.07581 0.0948-0.07818 0.14688-0.27717 0.0687-0.25585 0.0687-0.86706 0-0.6112-0.0616-0.83863-0.0616-0.22979-0.15636-0.3056-0.0924-0.07818-0.21321-0.07818z" style="fill-opacity:.76606;fill:#fff;stroke-width:.1604"/>
  </g>
  <path d="m113.31 83.528a1.9575 6.6297 0 0 0-0.17518 2.7264 1.9575 6.6297 0 0 0 0.17777 2.7409h3.56a1.9575 6.6297 0 0 0 0.17725-2.7409 1.9575 6.6297 0 0 0-0.17622-2.7264z" style="fill-opacity:.99087;fill:#303030;paint-order:markers fill stroke"/>
  <g transform="translate(-19.817 32.869)" style="fill-opacity:.76606;fill:#fff" aria-label="0">
   <path d="m134.89 51.459q0.5046 0 0.78888 0.36009 0.33877 0.42642 0.33877 1.4143 0 0.98551-0.34114 1.4167-0.28191 0.35535-0.78651 0.35535-0.50697 0-0.81731-0.38852-0.31033-0.39089-0.31033-1.3906 0-0.98077 0.34113-1.4119 0.28191-0.35535 0.78651-0.35535zm0 0.55198q-0.12082 0-0.21558 0.07818-0.0948 0.07581-0.14688 0.2748-0.0687 0.25822-0.0687 0.86942 0 0.6112 0.0616 0.841 0.0616 0.22742 0.15398 0.30323 0.0948 0.07581 0.21558 0.07581 0.12082 0 0.21558-0.07581 0.0948-0.07818 0.14688-0.27717 0.0687-0.25585 0.0687-0.86706 0-0.6112-0.0616-0.83863-0.0616-0.22979-0.15636-0.3056-0.0924-0.07818-0.21321-0.07818z" style="fill-opacity:.76606;fill:#fff;stroke-width:.1604"/>
  </g>
  <path d="m117.43 83.528a1.9575 6.6297 0 0 0-0.17518 2.7264 1.9575 6.6297 0 0 0 0.17777 2.7409h3.56a1.9575 6.6297 0 0 0 0.17725-2.7409 1.9575 6.6297 0 0 0-0.17622-2.7264z" style="fill-opacity:.99087;fill:#303030;paint-order:markers fill stroke"/>
  <text x="117.94685" y="88.014404" style="fill:#bfbfbf;font-family:sans-serif;font-size:10.583px;letter-spacing:0px;line-height:1.25;stroke-width:.042439;word-spacing:0px" xml:space="preserve"><tspan x="117.94685" y="88.014404" style="fill:#bfbfbf;font-family:Arial;font-size:4.7272px;font-weight:bold;stroke-width:.042439">2</tspan></text>
  <g transform="matrix(.50845 0 0 .96347 45.786 35.033)">
   <path d="m153.83 50.873 7.238 0.35079v4.4434l-7.238 0.3274v-5.1216" style="paint-order:markers fill stroke"/>
   <path d="m153.83 50.873 7.238 0.35079v0.17597l-7.238-0.32393v-0.20283" style="fill:url(#linearGradient3245);opacity:.838;paint-order:markers fill stroke"/>
   <path d="m153.83 51.163 7.238 0.31248v0.17597l-7.238-0.28562v-0.20283" style="fill:url(#linearGradient3247);opacity:.838;paint-order:markers fill stroke"/>
   <path d="m153.83 51.741 7.238 0.23585v0.17597l-7.238-0.20899v-0.20283" style="fill:url(#linearGradient3249);opacity:.838;paint-order:markers fill stroke"/>
   <path d="m153.83 52.609 7.238 0.12091v0.17598s-7.238-0.09405-7.238-0.09405v-0.20283" style="fill:url(#linearGradient3251);opacity:.838;paint-order:markers fill stroke"/>
   <path d="m153.83 52.32 7.238 0.15922v0.17597l-7.238-0.13236v-0.20283" style="fill:url(#linearGradient3253);opacity:.838;paint-order:markers fill stroke"/>
   <path d="m153.83 53.767 7.238-0.03235v0.17597l-7.238 0.05921v-0.20283" style="fill:url(#linearGradient3255);opacity:.838;paint-order:markers fill stroke"/>
   <path d="m153.83 53.188 7.238 0.04428v0.17597l-7.238-0.01742v-0.20283" style="fill:url(#linearGradient3257);opacity:.838;paint-order:markers fill stroke"/>
   <path d="m153.83 51.452 7.238 0.27416v0.17597l-7.238-0.2473v-0.20283" style="fill:url(#linearGradient3259);opacity:.838;paint-order:markers fill stroke"/>
   <path d="m153.83 54.345 7.238-0.10898v0.17597l-7.238 0.13584v-0.20283" style="fill:url(#linearGradient3261);opacity:.838;paint-order:markers fill stroke"/>
   <path d="m153.83 54.924 7.238-0.1856v0.17597l-7.238 0.21246v-0.20283" style="fill:url(#linearGradient3263);opacity:.838;paint-order:markers fill stroke"/>
   <path d="m153.83 55.503 7.238-0.26223v0.17598l-7.238 0.28909v-0.20284" style="fill:url(#linearGradient3265);opacity:.838;paint-order:markers fill stroke"/>
   <path d="m153.83 55.792 7.238-0.30055v0.17597l-7.238 0.3274v-0.20283" style="fill:url(#linearGradient3267);opacity:.838;paint-order:markers fill stroke"/>
   <path d="m153.83 55.213 7.238-0.22392v0.17597l-7.238 0.25078v-0.20283" style="fill:url(#linearGradient3269);opacity:.838;paint-order:markers fill stroke"/>
   <path d="m153.83 54.635 7.238-0.14729v0.17597l-7.238 0.17415v-0.20283" style="fill:url(#linearGradient3271);opacity:.838;paint-order:markers fill stroke"/>
   <path d="m153.83 54.056 7.238-0.07066v0.17597l-7.238 0.09752v-0.20283" style="fill:url(#linearGradient3273);opacity:.838;paint-order:markers fill stroke"/>
   <path d="m153.83 53.477 7.238 6e-3v0.17597l-7.238 0.02089v-0.20283" style="fill:url(#linearGradient3275);opacity:.838;paint-order:markers fill stroke"/>
   <path d="m153.83 52.899s7.238 0.08259 7.238 0.08259v0.17597l-7.238-0.05573v-0.20283" style="fill:url(#linearGradient3277);opacity:.838;paint-order:markers fill stroke"/>
   <path d="m153.83 52.031 7.238 0.19754v0.17597l-7.238-0.17068v-0.20283" style="fill:url(#linearGradient3279);opacity:.838;paint-order:markers fill stroke"/>
  </g>
  <rect x="102.11" y="68.783" width="21.889" height="11.179" style="fill-opacity:.99087;fill:#5b5b5b;paint-order:markers fill stroke"/>
  <rect x="103.35" y="70.022" width="19.387" height="8.6996" style="fill:url(#linearGradient2677);paint-order:markers fill stroke"/>
  <path d="m103.35 70.022v8.6997h19.41l-1.6836-1.6371-16.043-5.4255z" style="fill:url(#linearGradient2679);paint-order:markers fill stroke"/>
  <rect x="104.59" y="71.262" width="16.873" height="6.2207" style="fill-opacity:.99087;paint-order:markers fill stroke"/>
  <path d="m105.07 71.627a1.9575 6.6297 0 0 0-0.17518 2.7264 1.9575 6.6297 0 0 0 0.17777 2.7409h3.56a1.9575 6.6297 0 0 0 0.17725-2.7409 1.9575 6.6297 0 0 0-0.17622-2.7264z" style="fill-opacity:.99087;fill:#303030;paint-order:markers fill stroke"/>
  <g transform="translate(-28.038 20.962)" style="fill-opacity:.76606;fill:#fff" aria-label="0">
   <path d="m134.89 51.459q0.5046 0 0.78888 0.36009 0.33877 0.42642 0.33877 1.4143 0 0.98551-0.34114 1.4167-0.28191 0.35535-0.78651 0.35535-0.50697 0-0.81731-0.38852-0.31033-0.39089-0.31033-1.3906 0-0.98077 0.34113-1.4119 0.28191-0.35535 0.78651-0.35535zm0 0.55198q-0.12082 0-0.21558 0.07818-0.0948 0.07581-0.14688 0.2748-0.0687 0.25822-0.0687 0.86942 0 0.6112 0.0616 0.841 0.0616 0.22742 0.15398 0.30323 0.0948 0.07581 0.21558 0.07581 0.12082 0 0.21558-0.07581 0.0948-0.07818 0.14688-0.27717 0.0687-0.25585 0.0687-0.86706 0-0.6112-0.0616-0.83863-0.0616-0.22979-0.15636-0.3056-0.0924-0.07818-0.21321-0.07818z" style="fill-opacity:.76606;fill:#fff;stroke-width:.1604"/>
  </g>
  <path d="m105.07 71.627a1.9575 6.6297 0 0 0-0.17363 2.6133 4.5575 2.0906 0 0 0 1.9616 0.20619 4.5575 2.0906 0 0 0 1.9508-0.20361 1.9575 6.6297 0 0 0-0.17518-2.6158z" style="fill:url(#linearGradient9280-9-9);paint-order:markers fill stroke"/>
  <path d="m109.18 71.627a1.9575 6.6297 0 0 0-0.17518 2.7264 1.9575 6.6297 0 0 0 0.17777 2.7409h3.56a1.9575 6.6297 0 0 0 0.17725-2.7409 1.9575 6.6297 0 0 0-0.17622-2.7264z" style="fill-opacity:.99087;fill:#303030;paint-order:markers fill stroke"/>
  <g transform="translate(-23.907 21.135)" style="fill-opacity:.76606;fill:#fff" aria-label="0">
   <path d="m134.89 51.459q0.5046 0 0.78888 0.36009 0.33877 0.42642 0.33877 1.4143 0 0.98551-0.34114 1.4167-0.28191 0.35535-0.78651 0.35535-0.50697 0-0.81731-0.38852-0.31033-0.39089-0.31033-1.3906 0-0.98077 0.34113-1.4119 0.28191-0.35535 0.78651-0.35535zm0 0.55198q-0.12082 0-0.21558 0.07818-0.0948 0.07581-0.14688 0.2748-0.0687 0.25822-0.0687 0.86942 0 0.6112 0.0616 0.841 0.0616 0.22742 0.15398 0.30323 0.0948 0.07581 0.21558 0.07581 0.12082 0 0.21558-0.07581 0.0948-0.07818 0.14688-0.27717 0.0687-0.25585 0.0687-0.86706 0-0.6112-0.0616-0.83863-0.0616-0.22979-0.15636-0.3056-0.0924-0.07818-0.21321-0.07818z" style="fill-opacity:.76606;fill:#fff;stroke-width:.1604"/>
  </g>
  <path d="m113.31 71.627a1.9575 6.6297 0 0 0-0.17518 2.7264 1.9575 6.6297 0 0 0 0.17777 2.7409h3.56a1.9575 6.6297 0 0 0 0.17725-2.7409 1.9575 6.6297 0 0 0-0.17622-2.7264z" style="fill-opacity:.99087;fill:#303030;paint-order:markers fill stroke"/>
  <text x="113.90038" y="75.688179" style="fill:#bfbfbf;font-family:sans-serif;font-size:10.583px;letter-spacing:0px;line-height:1.25;stroke-width:.042439;word-spacing:0px" xml:space="preserve"><tspan x="113.90038" y="75.688179" style="fill:#bfbfbf;font-family:Arial;font-size:4.7272px;font-weight:bold;stroke-width:.042439">1</tspan></text>
  <text x="132.99377" y="78.116783" style="fill:#000000;font-family:sans-serif;font-size:10.583px;letter-spacing:0px;line-height:1.25;stroke-width:.042439;word-spacing:0px" xml:space="preserve"><tspan x="132.99377" y="87.480553" style="stroke-width:.042439"/></text>
  <path d="m117.43 71.627a1.9575 6.6297 0 0 0-0.17518 2.7264 1.9575 6.6297 0 0 0 0.17777 2.7409h3.56a1.9575 6.6297 0 0 0 0.17725-2.7409 1.9575 6.6297 0 0 0-0.17622-2.7264z" style="fill-opacity:.99087;fill:#303030;paint-order:markers fill stroke"/>
  <g transform="translate(-15.686 21.02)" style="fill-opacity:.76606;fill:#fff" aria-label="0">
   <path d="m134.89 51.459q0.5046 0 0.78888 0.36009 0.33877 0.42642 0.33877 1.4143 0 0.98551-0.34114 1.4167-0.28191 0.35535-0.78651 0.35535-0.50697 0-0.81731-0.38852-0.31033-0.39089-0.31033-1.3906 0-0.98077 0.34113-1.4119 0.28191-0.35535 0.78651-0.35535zm0 0.55198q-0.12082 0-0.21558 0.07818-0.0948 0.07581-0.14688 0.2748-0.0687 0.25822-0.0687 0.86942 0 0.6112 0.0616 0.841 0.0616 0.22742 0.15398 0.30323 0.0948 0.07581 0.21558 0.07581 0.12082 0 0.21558-0.07581 0.0948-0.07818 0.14688-0.27717 0.0687-0.25585 0.0687-0.86706 0-0.6112-0.0616-0.83863-0.0616-0.22979-0.15636-0.3056-0.0924-0.07818-0.21321-0.07818z" style="fill-opacity:.76606;fill:#fff;stroke-width:.1604"/>
  </g>
  <g transform="matrix(.50845 0 0 .96347 45.786 23.127)">
   <path d="m153.83 50.873 7.238 0.35079v4.4434l-7.238 0.3274v-5.1216" style="paint-order:markers fill stroke"/>
   <path d="m153.83 50.873 7.238 0.35079v0.17597l-7.238-0.32393v-0.20283" style="fill:url(#linearGradient3245);opacity:.838;paint-order:markers fill stroke"/>
   <path d="m153.83 51.163 7.238 0.31248v0.17597l-7.238-0.28562v-0.20283" style="fill:url(#linearGradient3247);opacity:.838;paint-order:markers fill stroke"/>
   <path d="m153.83 51.741 7.238 0.23585v0.17597l-7.238-0.20899v-0.20283" style="fill:url(#linearGradient3249);opacity:.838;paint-order:markers fill stroke"/>
   <path d="m153.83 52.609 7.238 0.12091v0.17598s-7.238-0.09405-7.238-0.09405v-0.20283" style="fill:url(#linearGradient3251);opacity:.838;paint-order:markers fill stroke"/>
   <path d="m153.83 52.32 7.238 0.15922v0.17597l-7.238-0.13236v-0.20283" style="fill:url(#linearGradient3253);opacity:.838;paint-order:markers fill stroke"/>
   <path d="m153.83 53.767 7.238-0.03235v0.17597l-7.238 0.05921v-0.20283" style="fill:url(#linearGradient3255);opacity:.838;paint-order:markers fill stroke"/>
   <path d="m153.83 53.188 7.238 0.04428v0.17597l-7.238-0.01742v-0.20283" style="fill:url(#linearGradient3257);opacity:.838;paint-order:markers fill stroke"/>
   <path d="m153.83 51.452 7.238 0.27416v0.17597l-7.238-0.2473v-0.20283" style="fill:url(#linearGradient3259);opacity:.838;paint-order:markers fill stroke"/>
   <path d="m153.83 54.345 7.238-0.10898v0.17597l-7.238 0.13584v-0.20283" style="fill:url(#linearGradient3261);opacity:.838;paint-order:markers fill stroke"/>
   <path d="m153.83 54.924 7.238-0.1856v0.17597l-7.238 0.21246v-0.20283" style="fill:url(#linearGradient3263);opacity:.838;paint-order:markers fill stroke"/>
   <path d="m153.83 55.503 7.238-0.26223v0.17598l-7.238 0.28909v-0.20284" style="fill:url(#linearGradient3265);opacity:.838;paint-order:markers fill stroke"/>
   <path d="m153.83 55.792 7.238-0.30055v0.17597l-7.238 0.3274v-0.20283" style="fill:url(#linearGradient3267);opacity:.838;paint-order:markers fill stroke"/>
   <path d="m153.83 55.213 7.238-0.22392v0.17597l-7.238 0.25078v-0.20283" style="fill:url(#linearGradient3269);opacity:.838;paint-order:markers fill stroke"/>
   <path d="m153.83 54.635 7.238-0.14729v0.17597l-7.238 0.17415v-0.20283" style="fill:url(#linearGradient3271);opacity:.838;paint-order:markers fill stroke"/>
   <path d="m153.83 54.056 7.238-0.07066v0.17597l-7.238 0.09752v-0.20283" style="fill:url(#linearGradient3273);opacity:.838;paint-order:markers fill stroke"/>
   <path d="m153.83 53.477 7.238 6e-3v0.17597l-7.238 0.02089v-0.20283" style="fill:url(#linearGradient3275);opacity:.838;paint-order:markers fill stroke"/>
   <path d="m153.83 52.899s7.238 0.08259 7.238 0.08259v0.17597l-7.238-0.05573v-0.20283" style="fill:url(#linearGradient3277);opacity:.838;paint-order:markers fill stroke"/>
   <path d="m153.83 52.031 7.238 0.19754v0.17597l-7.238-0.17068v-0.20283" style="fill:url(#linearGradient3279);opacity:.838;paint-order:markers fill stroke"/>
  </g>
  <rect x="102.11" y="104.5" width="21.889" height="11.179" style="fill-opacity:.99087;fill:#5b5b5b;paint-order:markers fill stroke"/>
  <rect x="103.35" y="105.74" width="19.387" height="8.6996" style="fill:url(#linearGradient2955);paint-order:markers fill stroke"/>
  <path d="m103.35 105.74v8.6997h19.41l-1.6836-1.6371-16.043-5.4255z" style="fill:url(#linearGradient2957);paint-order:markers fill stroke"/>
  <rect x="104.59" y="106.98" width="16.873" height="6.2207" style="fill-opacity:.99087;paint-order:markers fill stroke"/>
  <path d="m105.07 107.34a1.9575 6.6297 0 0 0-0.17518 2.7264 1.9575 6.6297 0 0 0 0.17777 2.7409h3.56a1.9575 6.6297 0 0 0 0.17725-2.7409 1.9575 6.6297 0 0 0-0.17622-2.7264z" style="fill-opacity:.99087;fill:#303030;paint-order:markers fill stroke"/>
  <g transform="translate(-28.038 56.68)" style="fill-opacity:.76606;fill:#fff" aria-label="0">
   <path d="m134.89 51.459q0.5046 0 0.78888 0.36009 0.33877 0.42642 0.33877 1.4143 0 0.98551-0.34114 1.4167-0.28191 0.35535-0.78651 0.35535-0.50697 0-0.81731-0.38852-0.31033-0.39089-0.31033-1.3906 0-0.98077 0.34113-1.4119 0.28191-0.35535 0.78651-0.35535zm0 0.55198q-0.12082 0-0.21558 0.07818-0.0948 0.07581-0.14688 0.2748-0.0687 0.25822-0.0687 0.86942 0 0.6112 0.0616 0.841 0.0616 0.22742 0.15398 0.30323 0.0948 0.07581 0.21558 0.07581 0.12082 0 0.21558-0.07581 0.0948-0.07818 0.14688-0.27717 0.0687-0.25585 0.0687-0.86706 0-0.6112-0.0616-0.83863-0.0616-0.22979-0.15636-0.3056-0.0924-0.07818-0.21321-0.07818z" style="fill-opacity:.76606;fill:#fff;stroke-width:.1604"/>
  </g>
  <path d="m105.07 107.34a1.9575 6.6297 0 0 0-0.17363 2.6133 4.5575 2.0906 0 0 0 1.9616 0.20619 4.5575 2.0906 0 0 0 1.9508-0.20361 1.9575 6.6297 0 0 0-0.17518-2.6159z" style="fill:url(#linearGradient9280-9);paint-order:markers fill stroke"/>
  <path d="m109.18 107.34a1.9575 6.6297 0 0 0-0.17518 2.7264 1.9575 6.6297 0 0 0 0.17777 2.7409h3.56a1.9575 6.6297 0 0 0 0.17725-2.7409 1.9575 6.6297 0 0 0-0.17622-2.7264z" style="fill-opacity:.99087;fill:#303030;paint-order:markers fill stroke"/>
  <g transform="translate(-23.907 56.738)" style="fill-opacity:.76606;fill:#fff" aria-label="0">
   <path d="m134.89 51.459q0.5046 0 0.78888 0.36009 0.33877 0.42642 0.33877 1.4143 0 0.98551-0.34114 1.4167-0.28191 0.35535-0.78651 0.35535-0.50697 0-0.81731-0.38852-0.31033-0.39089-0.31033-1.3906 0-0.98077 0.34113-1.4119 0.28191-0.35535 0.78651-0.35535zm0 0.55198q-0.12082 0-0.21558 0.07818-0.0948 0.07581-0.14688 0.2748-0.0687 0.25822-0.0687 0.86942 0 0.6112 0.0616 0.841 0.0616 0.22742 0.15398 0.30323 0.0948 0.07581 0.21558 0.07581 0.12082 0 0.21558-0.07581 0.0948-0.07818 0.14688-0.27717 0.0687-0.25585 0.0687-0.86706 0-0.6112-0.0616-0.83863-0.0616-0.22979-0.15636-0.3056-0.0924-0.07818-0.21321-0.07818z" style="fill-opacity:.76606;fill:#fff;stroke-width:.1604"/>
  </g>
  <path d="m113.31 107.34a1.9575 6.6297 0 0 0-0.17518 2.7264 1.9575 6.6297 0 0 0 0.17777 2.7409h3.56a1.9575 6.6297 0 0 0 0.17725-2.7409 1.9575 6.6297 0 0 0-0.17622-2.7264z" style="fill-opacity:.99087;fill:#303030;paint-order:markers fill stroke"/>
  <g transform="translate(-19.817 56.681)" style="fill-opacity:.76606;fill:#fff" aria-label="0">
   <path d="m134.89 51.459q0.5046 0 0.78888 0.36009 0.33877 0.42642 0.33877 1.4143 0 0.98551-0.34114 1.4167-0.28191 0.35535-0.78651 0.35535-0.50697 0-0.81731-0.38852-0.31033-0.39089-0.31033-1.3906 0-0.98077 0.34113-1.4119 0.28191-0.35535 0.78651-0.35535zm0 0.55198q-0.12082 0-0.21558 0.07818-0.0948 0.07581-0.14688 0.2748-0.0687 0.25822-0.0687 0.86942 0 0.6112 0.0616 0.841 0.0616 0.22742 0.15398 0.30323 0.0948 0.07581 0.21558 0.07581 0.12082 0 0.21558-0.07581 0.0948-0.07818 0.14688-0.27717 0.0687-0.25585 0.0687-0.86706 0-0.6112-0.0616-0.83863-0.0616-0.22979-0.15636-0.3056-0.0924-0.07818-0.21321-0.07818z" style="fill-opacity:.76606;fill:#fff;stroke-width:.1604"/>
  </g>
  <path d="m117.43 107.34a1.9575 6.6297 0 0 0-0.17518 2.7264 1.9575 6.6297 0 0 0 0.17777 2.7409h3.56a1.9575 6.6297 0 0 0 0.17725-2.7409 1.9575 6.6297 0 0 0-0.17622-2.7264z" style="fill-opacity:.99087;fill:#303030;paint-order:markers fill stroke"/>
  <text x="117.90365" y="111.36887" style="fill:#bfbfbf;font-family:sans-serif;font-size:10.583px;letter-spacing:0px;line-height:1.25;stroke-width:.042439;word-spacing:0px" xml:space="preserve"><tspan x="117.90365" y="111.36887" style="fill:#bfbfbf;font-family:Arial;font-size:4.7272px;font-weight:bold;stroke-width:.042439">3</tspan></text>
  <g transform="matrix(.50845 0 0 .96347 45.786 58.846)">
   <path d="m153.83 50.873 7.238 0.35079v4.4434l-7.238 0.3274v-5.1216" style="paint-order:markers fill stroke"/>
   <path d="m153.83 50.873 7.238 0.35079v0.17597l-7.238-0.32393v-0.20283" style="fill:url(#linearGradient3245);opacity:.838;paint-order:markers fill stroke"/>
   <path d="m153.83 51.163 7.238 0.31248v0.17597l-7.238-0.28562v-0.20283" style="fill:url(#linearGradient3247);opacity:.838;paint-order:markers fill stroke"/>
   <path d="m153.83 51.741 7.238 0.23585v0.17597l-7.238-0.20899v-0.20283" style="fill:url(#linearGradient3249);opacity:.838;paint-order:markers fill stroke"/>
   <path d="m153.83 52.609 7.238 0.12091v0.17598s-7.238-0.09405-7.238-0.09405v-0.20283" style="fill:url(#linearGradient3251);opacity:.838;paint-order:markers fill stroke"/>
   <path d="m153.83 52.32 7.238 0.15922v0.17597l-7.238-0.13236v-0.20283" style="fill:url(#linearGradient3253);opacity:.838;paint-order:markers fill stroke"/>
   <path d="m153.83 53.767 7.238-0.03235v0.17597l-7.238 0.05921v-0.20283" style="fill:url(#linearGradient3255);opacity:.838;paint-order:markers fill stroke"/>
   <path d="m153.83 53.188 7.238 0.04428v0.17597l-7.238-0.01742v-0.20283" style="fill:url(#linearGradient3257);opacity:.838;paint-order:markers fill stroke"/>
   <path d="m153.83 51.452 7.238 0.27416v0.17597l-7.238-0.2473v-0.20283" style="fill:url(#linearGradient3259);opacity:.838;paint-order:markers fill stroke"/>
   <path d="m153.83 54.345 7.238-0.10898v0.17597l-7.238 0.13584v-0.20283" style="fill:url(#linearGradient3261);opacity:.838;paint-order:markers fill stroke"/>
   <path d="m153.83 54.924 7.238-0.1856v0.17597l-7.238 0.21246v-0.20283" style="fill:url(#linearGradient3263);opacity:.838;paint-order:markers fill stroke"/>
   <path d="m153.83 55.503 7.238-0.26223v0.17598l-7.238 0.28909v-0.20284" style="fill:url(#linearGradient3265);opacity:.838;paint-order:markers fill stroke"/>
   <path d="m153.83 55.792 7.238-0.30055v0.17597l-7.238 0.3274v-0.20283" style="fill:url(#linearGradient3267);opacity:.838;paint-order:markers fill stroke"/>
   <path d="m153.83 55.213 7.238-0.22392v0.17597l-7.238 0.25078v-0.20283" style="fill:url(#linearGradient3269);opacity:.838;paint-order:markers fill stroke"/>
   <path d="m153.83 54.635 7.238-0.14729v0.17597l-7.238 0.17415v-0.20283" style="fill:url(#linearGradient3271);opacity:.838;paint-order:markers fill stroke"/>
   <path d="m153.83 54.056 7.238-0.07066v0.17597l-7.238 0.09752v-0.20283" style="fill:url(#linearGradient3273);opacity:.838;paint-order:markers fill stroke"/>
   <path d="m153.83 53.477 7.238 6e-3v0.17597l-7.238 0.02089v-0.20283" style="fill:url(#linearGradient3275);opacity:.838;paint-order:markers fill stroke"/>
   <path d="m153.83 52.899s7.238 0.08259 7.238 0.08259v0.17597l-7.238-0.05573v-0.20283" style="fill:url(#linearGradient3277);opacity:.838;paint-order:markers fill stroke"/>
   <path d="m153.83 52.031 7.238 0.19754v0.17597l-7.238-0.17068v-0.20283" style="fill:url(#linearGradient3279);opacity:.838;paint-order:markers fill stroke"/>
  </g>
  <rect x="102.11" y="116.41" width="21.889" height="11.179" style="fill-opacity:.99087;fill:#5b5b5b;paint-order:markers fill stroke"/>
  <rect x="103.35" y="117.65" width="19.387" height="8.6996" style="fill:url(#linearGradient3233);paint-order:markers fill stroke"/>
  <path d="m103.35 117.65v8.6997h19.41l-1.6836-1.6371-16.043-5.4255z" style="fill:url(#linearGradient3235);paint-order:markers fill stroke"/>
  <rect x="104.59" y="118.89" width="16.873" height="6.2207" style="fill-opacity:.99087;paint-order:markers fill stroke"/>
  <path transform="matrix(.26458 0 0 .26458 102.01 68.683)" d="m11.543 191.09a7.3986 25.057 0 0 0-0.66211 10.305 7.3986 25.057 0 0 0 0.67188 10.359h13.455a7.3986 25.057 0 0 0 0.66992-10.359 7.3986 25.057 0 0 0-0.66602-10.305h-13.469z" style="fill-opacity:.99087;fill:#303030;paint-order:markers fill stroke"/>
  <g transform="translate(-28.038 68.587)" style="fill-opacity:.76606;fill:#fff" aria-label="0">
   <path d="m134.89 51.459q0.5046 0 0.78888 0.36009 0.33877 0.42642 0.33877 1.4143 0 0.98551-0.34114 1.4167-0.28191 0.35535-0.78651 0.35535-0.50697 0-0.81731-0.38852-0.31033-0.39089-0.31033-1.3906 0-0.98077 0.34113-1.4119 0.28191-0.35535 0.78651-0.35535zm0 0.55198q-0.12082 0-0.21558 0.07818-0.0948 0.07581-0.14688 0.2748-0.0687 0.25822-0.0687 0.86942 0 0.6112 0.0616 0.841 0.0616 0.22742 0.15398 0.30323 0.0948 0.07581 0.21558 0.07581 0.12082 0 0.21558-0.07581 0.0948-0.07818 0.14688-0.27717 0.0687-0.25585 0.0687-0.86706 0-0.6112-0.0616-0.83863-0.0616-0.22979-0.15636-0.3056-0.0924-0.07818-0.21321-0.07818z" style="fill-opacity:.76606;fill:#fff;stroke-width:.1604"/>
  </g>
  <path transform="matrix(.26458 0 0 .26458 102.01 68.683)" d="m11.543 191.09a7.3986 25.057 0 0 0-0.65625 9.877 17.225 7.9014 0 0 0 7.4141 0.7793 17.225 7.9014 0 0 0 7.373-0.76953 7.3986 25.057 0 0 0-0.66211-9.8867h-13.469z" style="fill:url(#linearGradient9280);paint-order:markers fill stroke"/>
  <path d="m109.18 119.24a1.9575 6.6297 0 0 0-0.17518 2.7264 1.9575 6.6297 0 0 0 0.17777 2.7409h3.56a1.9575 6.6297 0 0 0 0.17725-2.7409 1.9575 6.6297 0 0 0-0.17622-2.7264z" style="fill-opacity:.99087;fill:#303030;paint-order:markers fill stroke"/>
  <g transform="translate(-23.907 68.644)" style="fill-opacity:.76606;fill:#fff" aria-label="0">
   <path d="m134.89 51.459q0.5046 0 0.78888 0.36009 0.33877 0.42642 0.33877 1.4143 0 0.98551-0.34114 1.4167-0.28191 0.35535-0.78651 0.35535-0.50697 0-0.81731-0.38852-0.31033-0.39089-0.31033-1.3906 0-0.98077 0.34113-1.4119 0.28191-0.35535 0.78651-0.35535zm0 0.55198q-0.12082 0-0.21558 0.07818-0.0948 0.07581-0.14688 0.2748-0.0687 0.25822-0.0687 0.86942 0 0.6112 0.0616 0.841 0.0616 0.22742 0.15398 0.30323 0.0948 0.07581 0.21558 0.07581 0.12082 0 0.21558-0.07581 0.0948-0.07818 0.14688-0.27717 0.0687-0.25585 0.0687-0.86706 0-0.6112-0.0616-0.83863-0.0616-0.22979-0.15636-0.3056-0.0924-0.07818-0.21321-0.07818z" style="fill-opacity:.76606;fill:#fff;stroke-width:.1604"/>
  </g>
  <path d="m113.31 119.24a1.9575 6.6297 0 0 0-0.17518 2.7264 1.9575 6.6297 0 0 0 0.17777 2.7409h3.56a1.9575 6.6297 0 0 0 0.17725-2.7409 1.9575 6.6297 0 0 0-0.17622-2.7264z" style="fill-opacity:.99087;fill:#303030;paint-order:markers fill stroke"/>
  <g transform="translate(-19.817 68.588)" style="fill-opacity:.76606;fill:#fff" aria-label="0">
   <path d="m134.89 51.459q0.5046 0 0.78888 0.36009 0.33877 0.42642 0.33877 1.4143 0 0.98551-0.34114 1.4167-0.28191 0.35535-0.78651 0.35535-0.50697 0-0.81731-0.38852-0.31033-0.39089-0.31033-1.3906 0-0.98077 0.34113-1.4119 0.28191-0.35535 0.78651-0.35535zm0 0.55198q-0.12082 0-0.21558 0.07818-0.0948 0.07581-0.14688 0.2748-0.0687 0.25822-0.0687 0.86942 0 0.6112 0.0616 0.841 0.0616 0.22742 0.15398 0.30323 0.0948 0.07581 0.21558 0.07581 0.12082 0 0.21558-0.07581 0.0948-0.07818 0.14688-0.27717 0.0687-0.25585 0.0687-0.86706 0-0.6112-0.0616-0.83863-0.0616-0.22979-0.15636-0.3056-0.0924-0.07818-0.21321-0.07818z" style="fill-opacity:.76606;fill:#fff;stroke-width:.1604"/>
  </g>
  <path d="m117.43 119.24a1.9575 6.6297 0 0 0-0.17518 2.7264 1.9575 6.6297 0 0 0 0.17777 2.7409h3.56a1.9575 6.6297 0 0 0 0.17725-2.7409 1.9575 6.6297 0 0 0-0.17622-2.7264z" style="fill-opacity:.99087;fill:#303030;paint-order:markers fill stroke"/>
  <text x="117.90134" y="123.88808" style="fill:#bfbfbf;font-family:sans-serif;font-size:10.583px;letter-spacing:0px;line-height:1.25;stroke-width:.042439;word-spacing:0px" xml:space="preserve"><tspan x="117.90134" y="123.88808" style="fill:#bfbfbf;font-family:Arial;font-size:4.7272px;font-weight:bold;stroke-width:.042439">8</tspan></text>
  <g transform="matrix(.50845 0 0 .96347 45.786 70.752)">
   <path d="m153.83 50.873 7.238 0.35079v4.4434l-7.238 0.3274v-5.1216" style="paint-order:markers fill stroke"/>
   <path d="m153.83 50.873 7.238 0.35079v0.17597l-7.238-0.32393v-0.20283" style="fill:url(#linearGradient3245);opacity:.838;paint-order:markers fill stroke"/>
   <path d="m153.83 51.163 7.238 0.31248v0.17597l-7.238-0.28562v-0.20283" style="fill:url(#linearGradient3247);opacity:.838;paint-order:markers fill stroke"/>
   <path d="m153.83 51.741 7.238 0.23585v0.17597l-7.238-0.20899v-0.20283" style="fill:url(#linearGradient3249);opacity:.838;paint-order:markers fill stroke"/>
   <path d="m153.83 52.609 7.238 0.12091v0.17598s-7.238-0.09405-7.238-0.09405v-0.20283" style="fill:url(#linearGradient3251);opacity:.838;paint-order:markers fill stroke"/>
   <path d="m153.83 52.32 7.238 0.15922v0.17597l-7.238-0.13236v-0.20283" style="fill:url(#linearGradient3253);opacity:.838;paint-order:markers fill stroke"/>
   <path d="m153.83 53.767 7.238-0.03235v0.17597l-7.238 0.05921v-0.20283" style="fill:url(#linearGradient3255);opacity:.838;paint-order:markers fill stroke"/>
   <path d="m153.83 53.188 7.238 0.04428v0.17597l-7.238-0.01742v-0.20283" style="fill:url(#linearGradient3257);opacity:.838;paint-order:markers fill stroke"/>
   <path d="m153.83 51.452 7.238 0.27416v0.17597l-7.238-0.2473v-0.20283" style="fill:url(#linearGradient3259);opacity:.838;paint-order:markers fill stroke"/>
   <path d="m153.83 54.345 7.238-0.10898v0.17597l-7.238 0.13584v-0.20283" style="fill:url(#linearGradient3261);opacity:.838;paint-order:markers fill stroke"/>
   <path d="m153.83 54.924 7.238-0.1856v0.17597l-7.238 0.21246v-0.20283" style="fill:url(#linearGradient3263);opacity:.838;paint-order:markers fill stroke"/>
   <path d="m153.83 55.503 7.238-0.26223v0.17598l-7.238 0.28909v-0.20284" style="fill:url(#linearGradient3265);opacity:.838;paint-order:markers fill stroke"/>
   <path d="m153.83 55.792 7.238-0.30055v0.17597l-7.238 0.3274v-0.20283" style="fill:url(#linearGradient3267);opacity:.838;paint-order:markers fill stroke"/>
   <path d="m153.83 55.213 7.238-0.22392v0.17597l-7.238 0.25078v-0.20283" style="fill:url(#linearGradient3269);opacity:.838;paint-order:markers fill stroke"/>
   <path d="m153.83 54.635 7.238-0.14729v0.17597l-7.238 0.17415v-0.20283" style="fill:url(#linearGradient3271);opacity:.838;paint-order:markers fill stroke"/>
   <path d="m153.83 54.056 7.238-0.07066v0.17597l-7.238 0.09752v-0.20283" style="fill:url(#linearGradient3273);opacity:.838;paint-order:markers fill stroke"/>
   <path d="m153.83 53.477 7.238 6e-3v0.17597l-7.238 0.02089v-0.20283" style="fill:url(#linearGradient3275);opacity:.838;paint-order:markers fill stroke"/>
   <path d="m153.83 52.899s7.238 0.08259 7.238 0.08259v0.17597l-7.238-0.05573v-0.20283" style="fill:url(#linearGradient3277);opacity:.838;paint-order:markers fill stroke"/>
   <path d="m153.83 52.031 7.238 0.19754v0.17597l-7.238-0.17068v-0.20283" style="fill:url(#linearGradient3279);opacity:.838;paint-order:markers fill stroke"/>
  </g>
  <path d="m109.18 119.24a1.9575 6.6297 0 0 0-0.17363 2.6133 4.5575 2.0906 0 0 0 1.9616 0.20619 4.5575 2.0906 0 0 0 1.9508-0.20361 1.9575 6.6297 0 0 0-0.17518-2.6159z" style="fill:url(#linearGradient9280-6);paint-order:markers fill stroke"/>
  <path d="m113.31 119.24a1.9575 6.6297 0 0 0-0.17363 2.6133 4.5575 2.0906 0 0 0 1.9616 0.20619 4.5575 2.0906 0 0 0 1.9508-0.20361 1.9575 6.6297 0 0 0-0.17518-2.6159z" style="fill:url(#linearGradient9280-0);paint-order:markers fill stroke"/>
  <path d="m117.43 119.24a1.9575 6.6297 0 0 0-0.17363 2.6133 4.5575 2.0906 0 0 0 1.9616 0.20619 4.5575 2.0906 0 0 0 1.9508-0.20361 1.9575 6.6297 0 0 0-0.17518-2.6159z" style="fill:url(#linearGradient9280-62);paint-order:markers fill stroke"/>
  <path d="m109.18 107.34a1.9575 6.6297 0 0 0-0.17363 2.6133 4.5575 2.0906 0 0 0 1.9616 0.20619 4.5575 2.0906 0 0 0 1.9508-0.20361 1.9575 6.6297 0 0 0-0.17518-2.6159z" style="fill:url(#linearGradient9280-6-2);paint-order:markers fill stroke"/>
  <path d="m113.31 107.34a1.9575 6.6297 0 0 0-0.17363 2.6133 4.5575 2.0906 0 0 0 1.9616 0.20619 4.5575 2.0906 0 0 0 1.9508-0.20361 1.9575 6.6297 0 0 0-0.17518-2.6159z" style="fill:url(#linearGradient9280-0-3);paint-order:markers fill stroke"/>
  <path d="m117.43 107.34a1.9575 6.6297 0 0 0-0.17363 2.6133 4.5575 2.0906 0 0 0 1.9616 0.20619 4.5575 2.0906 0 0 0 1.9508-0.20361 1.9575 6.6297 0 0 0-0.17518-2.6159z" style="fill:url(#linearGradient9280-62-7);paint-order:markers fill stroke"/>
  <path d="m109.18 95.454a1.9575 6.6297 0 0 0-0.17363 2.6133 4.5575 2.0906 0 0 0 1.9616 0.20619 4.5575 2.0906 0 0 0 1.9508-0.20361 1.9575 6.6297 0 0 0-0.17518-2.6159z" style="fill:url(#linearGradient9280-6-2-9);paint-order:markers fill stroke"/>
  <path d="m113.31 95.454a1.9575 6.6297 0 0 0-0.17363 2.6133 4.5575 2.0906 0 0 0 1.9616 0.20619 4.5575 2.0906 0 0 0 1.9508-0.20361 1.9575 6.6297 0 0 0-0.17518-2.6159z" style="fill:url(#linearGradient9280-0-3-3);paint-order:markers fill stroke"/>
  <path d="m117.43 95.454a1.9575 6.6297 0 0 0-0.17363 2.6133 4.5575 2.0906 0 0 0 1.9616 0.20619 4.5575 2.0906 0 0 0 1.9508-0.20361 1.9575 6.6297 0 0 0-0.17518-2.6159z" style="fill:url(#linearGradient9280-62-7-1);paint-order:markers fill stroke"/>
  <path d="m109.18 83.528a1.9575 6.6297 0 0 0-0.17363 2.6133 4.5575 2.0906 0 0 0 1.9616 0.20619 4.5575 2.0906 0 0 0 1.9508-0.20361 1.9575 6.6297 0 0 0-0.17518-2.6159z" style="fill:url(#linearGradient9280-6-2-3);paint-order:markers fill stroke"/>
  <path d="m113.31 83.528a1.9575 6.6297 0 0 0-0.17363 2.6133 4.5575 2.0906 0 0 0 1.9616 0.20619 4.5575 2.0906 0 0 0 1.9508-0.20361 1.9575 6.6297 0 0 0-0.17518-2.6159z" style="fill:url(#linearGradient9280-0-3-2);paint-order:markers fill stroke"/>
  <path d="m117.43 83.528a1.9575 6.6297 0 0 0-0.17363 2.6133 4.5575 2.0906 0 0 0 1.9616 0.20619 4.5575 2.0906 0 0 0 1.9508-0.20361 1.9575 6.6297 0 0 0-0.17518-2.6159z" style="fill:url(#linearGradient9280-62-7-0);paint-order:markers fill stroke"/>
  <path d="m109.18 71.627a1.9575 6.6297 0 0 0-0.17363 2.6133 4.5575 2.0906 0 0 0 1.9616 0.20619 4.5575 2.0906 0 0 0 1.9508-0.20361 1.9575 6.6297 0 0 0-0.17518-2.6158z" style="fill:url(#linearGradient9280-6-2-4);paint-order:markers fill stroke"/>
  <path d="m113.31 71.627a1.9575 6.6297 0 0 0-0.17363 2.6133 4.5575 2.0906 0 0 0 1.9616 0.20619 4.5575 2.0906 0 0 0 1.9508-0.20361 1.9575 6.6297 0 0 0-0.17518-2.6158z" style="fill:url(#linearGradient9280-0-3-5);paint-order:markers fill stroke"/>
  <path d="m117.43 71.627a1.9575 6.6297 0 0 0-0.17363 2.6133 4.5575 2.0906 0 0 0 1.9616 0.20619 4.5575 2.0906 0 0 0 1.9508-0.20361 1.9575 6.6297 0 0 0-0.17518-2.6158z" style="fill:url(#linearGradient9280-62-7-2);paint-order:markers fill stroke"/>
 </g>
</svg>
