<?xml version="1.0" encoding="UTF-8"?>
<svg width="27mm" height="59.004mm" version="1.1" viewBox="0 0 27 59.004" xmlns="http://www.w3.org/2000/svg" xmlns:xlink="http://www.w3.org/1999/xlink">
 <defs>
  <linearGradient id="linearGradient4045" x1="68.581" x2="73.068" y1="60.463" y2="46.257" gradientTransform="translate(11.732 14.185)" gradientUnits="userSpaceOnUse" xlink:href="#linearGradient1044"/>
  <linearGradient id="linearGradient1044">
   <stop style="stop-color:#939393;stop-opacity:.99087" offset="0"/>
   <stop style="stop-color:#fff" offset="1"/>
  </linearGradient>
  <linearGradient id="linearGradient4047" x1="75.13" x2="80.233" y1="58.147" y2="49.945" gradientTransform="translate(5.7792 12.267)" gradientUnits="userSpaceOnUse" xlink:href="#linearGradient1620"/>
  <linearGradient id="linearGradient1620">
   <stop style="stop-color:#6f6f6f" offset="0"/>
   <stop style="stop-color:#d2d2d2" offset="1"/>
  </linearGradient>
  <linearGradient id="linearGradient4049" x1="88.085" x2="103.11" y1="59.731" y2="45.553" gradientTransform="matrix(.39968 0 0 .39968 -76.047 -121.46)" gradientUnits="userSpaceOnUse" xlink:href="#linearGradient1038"/>
  <linearGradient id="linearGradient1038">
   <stop style="stop-color:#2a2a2a;stop-opacity:.9863" offset="0"/>
   <stop style="stop-color:#fff;stop-opacity:.94977" offset="1"/>
  </linearGradient>
  <radialGradient id="radialGradient839-2-8" cx="82.128" cy="53.048" r="9.3337" gradientTransform="matrix(-.73691 -.0024925 .0026721 -.79002 143.89 107.35)" gradientUnits="userSpaceOnUse" xlink:href="#linearGradient1032"/>
  <linearGradient id="linearGradient1032">
   <stop style="stop-color:#fff" offset="0"/>
   <stop style="stop-color:#ebebeb" offset=".18553"/>
   <stop style="stop-color:#3a3a3a;stop-opacity:.9726" offset="1"/>
  </linearGradient>
  <linearGradient id="linearGradient4051" x1="106.37" x2="106.51" y1="108.57" y2="96.147" gradientTransform="matrix(-.37542 0 0 .56482 107.2 9.3924)" gradientUnits="userSpaceOnUse" xlink:href="#linearGradient894"/>
  <linearGradient id="linearGradient894">
   <stop style="stop-color:#2a2a2a" offset="0"/>
   <stop style="stop-color:#fff" offset="1"/>
  </linearGradient>
  <linearGradient id="linearGradient4053" x1="105.05" x2="106.64" y1="98.918" y2="110.2" gradientTransform="matrix(.68892 0 0 .56482 -140.45 9.4349)" gradientUnits="userSpaceOnUse" xlink:href="#linearGradient916"/>
  <linearGradient id="linearGradient916">
   <stop style="stop-color:#e9e9e9" offset="0"/>
   <stop style="stop-color:#484848" offset="1"/>
  </linearGradient>
  <radialGradient id="radialGradient839-3-7-3" cx="82.128" cy="53.048" r="9.3337" gradientTransform="matrix(-.36966 -.0016975 .0013404 -.53805 -36.802 94.436)" gradientUnits="userSpaceOnUse" xlink:href="#linearGradient825"/>
  <linearGradient id="linearGradient825">
   <stop style="stop-color:#fff" offset="0"/>
   <stop style="stop-color:#ebebeb;stop-opacity:.68235" offset=".18553"/>
   <stop style="stop-color:#3a3a3a" offset="1"/>
  </linearGradient>
  <linearGradient id="linearGradient3880" x1="68.581" x2="73.068" y1="60.463" y2="46.257" gradientTransform="translate(11.732 -.59504)" gradientUnits="userSpaceOnUse" xlink:href="#linearGradient1044"/>
  <linearGradient id="linearGradient3882" x1="75.13" x2="80.233" y1="58.147" y2="49.945" gradientTransform="translate(5.7792 -2.5133)" gradientUnits="userSpaceOnUse" xlink:href="#linearGradient1620"/>
  <linearGradient id="linearGradient3884" x1="88.085" x2="103.11" y1="59.731" y2="45.553" gradientTransform="matrix(.39968 0 0 .39968 -83.437 -108.66)" gradientUnits="userSpaceOnUse" xlink:href="#linearGradient1038"/>
  <radialGradient id="radialGradient839-1" cx="82.128" cy="53.048" r="9.3337" gradientTransform="matrix(-.73691 -.0024925 .0026721 -.79002 143.89 92.574)" gradientUnits="userSpaceOnUse" xlink:href="#linearGradient1032"/>
  <linearGradient id="linearGradient3886" x1="106.37" x2="106.51" y1="108.57" y2="96.147" gradientTransform="matrix(.37542 0 0 .56482 59.459 -5.3876)" gradientUnits="userSpaceOnUse" xlink:href="#linearGradient894"/>
  <linearGradient id="linearGradient3888" x1="105.05" x2="106.64" y1="98.918" y2="110.2" gradientTransform="matrix(.68892 0 0 .56482 26.21 -5.3451)" gradientUnits="userSpaceOnUse" xlink:href="#linearGradient916"/>
  <radialGradient id="radialGradient839-3-6" cx="82.128" cy="53.048" r="9.3337" gradientTransform="matrix(-.36966 -.0016975 .0013404 -.53805 129.85 79.656)" gradientUnits="userSpaceOnUse" xlink:href="#linearGradient825"/>
  <linearGradient id="linearGradient3652-4" x1="68.581" x2="73.068" y1="60.463" y2="46.257" gradientTransform="translate(11.732 27.943)" gradientUnits="userSpaceOnUse" xlink:href="#linearGradient1044"/>
  <linearGradient id="linearGradient3654-1" x1="75.13" x2="80.233" y1="58.147" y2="49.945" gradientTransform="translate(5.7792 26.025)" gradientUnits="userSpaceOnUse" xlink:href="#linearGradient1620"/>
  <linearGradient id="linearGradient3656-5" x1="88.085" x2="103.11" y1="59.731" y2="45.553" gradientTransform="matrix(.39968 0 0 .39968 -69.168 -133.37)" gradientUnits="userSpaceOnUse" xlink:href="#linearGradient1038"/>
  <radialGradient id="radialGradient839-2-9" cx="82.128" cy="53.048" r="9.3337" gradientTransform="matrix(-.73691 -.0024925 .0026721 -.79002 143.89 121.11)" gradientUnits="userSpaceOnUse" xlink:href="#linearGradient1032"/>
  <linearGradient id="linearGradient3658-0" x1="106.37" x2="106.51" y1="108.57" y2="96.147" gradientTransform="matrix(-.37542 0 0 .56482 107.2 23.151)" gradientUnits="userSpaceOnUse" xlink:href="#linearGradient894"/>
  <linearGradient id="linearGradient3660-1" x1="105.05" x2="106.64" y1="98.918" y2="110.2" gradientTransform="matrix(.68892 0 0 .56482 -140.45 23.193)" gradientUnits="userSpaceOnUse" xlink:href="#linearGradient916"/>
  <radialGradient id="radialGradient839-3-7-4" cx="82.128" cy="53.048" r="9.3337" gradientTransform="matrix(-.36966 -.0016975 .0013404 -.53805 -36.802 108.19)" gradientUnits="userSpaceOnUse" xlink:href="#linearGradient825"/>
 </defs>
 <g transform="translate(-32.482 -68.683)">
  <g transform="matrix(.65955 0 0 .65955 -8.1521 52.324)">
   <path d="m86.985 58.992h-7.3139l-3.6569-6.334 3.6569-6.334h7.3139l3.6569 6.334z" style="fill:url(#linearGradient3880);paint-order:markers fill stroke;stroke-width:.311;stroke:url(#linearGradient3882)"/>
   <circle transform="rotate(150)" cx="-45.835" cy="-87.267" r="4.54" style="fill:url(#linearGradient3884);paint-order:markers fill stroke"/>
   <circle cx="83.328" cy="52.658" r="4.0972" style="fill:url(#radialGradient839-1);paint-order:markers fill stroke"/>
   <path d="m99.443 48.918-14.863 1.1556a1.4943 2.397 0 0 0-1.3527 2.3825 1.4943 2.397 0 0 0 1.433 2.3923v0.0083l14.732 1.0811z" style="fill:url(#linearGradient3886);paint-order:markers fill stroke"/>
   <ellipse cx="99.477" cy="52.47" rx="2.6047" ry="3.5098" style="fill:url(#linearGradient3888);paint-order:markers fill stroke"/>
   <ellipse cx="99.477" cy="52.47" rx="2.0553" ry="2.7904" style="fill:url(#radialGradient839-3-6);paint-order:markers fill stroke"/>
  </g>
  <g transform="matrix(.65955 0 0 .65955 -10.009 54.144)">
   <path d="m86.985 73.772-7.3139-1e-6 -3.6569-6.334 3.6569-6.334h7.3139l3.6569 6.334z" style="fill:url(#linearGradient4045);paint-order:markers fill stroke;stroke-width:.311;stroke:url(#linearGradient4047)"/>
   <circle transform="rotate(150)" cx="-38.445" cy="-100.07" r="4.54" style="fill:url(#linearGradient4049);paint-order:markers fill stroke"/>
   <circle cx="83.328" cy="67.438" r="4.0972" style="fill:url(#radialGradient839-2-8);paint-order:markers fill stroke"/>
   <path d="m67.213 63.698 14.863 1.1556a1.4943 2.397 0 0 1 1.3527 2.3825 1.4943 2.397 0 0 1-1.433 2.3923v0.0083l-14.732 1.0811z" style="fill:url(#linearGradient4051);paint-order:markers fill stroke"/>
   <ellipse transform="scale(-1,1)" cx="-67.179" cy="67.25" rx="2.6047" ry="3.5098" style="fill:url(#linearGradient4053);paint-order:markers fill stroke"/>
   <ellipse transform="scale(-1,1)" cx="-67.179" cy="67.25" rx="2.0553" ry="2.7904" style="fill:url(#radialGradient839-3-7-3);paint-order:markers fill stroke"/>
  </g>
  <g transform="matrix(.65955 0 0 .65955 -10.009 56.639)">
   <path d="m86.985 87.53h-7.3139l-3.6569-6.334 3.6569-6.334 7.3139 1e-6 3.6569 6.334z" style="fill:url(#linearGradient3652-4);paint-order:markers fill stroke;stroke-width:.311;stroke:url(#linearGradient3654-1)"/>
   <circle transform="rotate(150)" cx="-31.566" cy="-111.98" r="4.54" style="fill:url(#linearGradient3656-5);paint-order:markers fill stroke"/>
   <circle cx="83.328" cy="81.196" r="4.0972" style="fill:url(#radialGradient839-2-9);paint-order:markers fill stroke"/>
   <path d="m67.213 77.456 14.863 1.1556a1.4943 2.397 0 0 1 1.3527 2.3825 1.4943 2.397 0 0 1-1.433 2.3923v0.0083l-14.732 1.0811z" style="fill:url(#linearGradient3658-0);paint-order:markers fill stroke"/>
   <ellipse transform="scale(-1,1)" cx="-67.179" cy="81.009" rx="2.6047" ry="3.5098" style="fill:url(#linearGradient3660-1);paint-order:markers fill stroke"/>
   <ellipse transform="scale(-1,1)" cx="-67.179" cy="81.009" rx="2.0553" ry="2.7904" style="fill:url(#radialGradient839-3-7-4);paint-order:markers fill stroke"/>
  </g>
  <g transform="matrix(.65955 0 0 .65955 -8.1521 87.03)">
   <path d="m86.985 58.992h-7.3139l-3.6569-6.334 3.6569-6.334h7.3139l3.6569 6.334z" style="fill:url(#linearGradient3880);paint-order:markers fill stroke;stroke-width:.311;stroke:url(#linearGradient3882)"/>
   <circle transform="rotate(150)" cx="-45.835" cy="-87.267" r="4.54" style="fill:url(#linearGradient3884);paint-order:markers fill stroke"/>
   <circle cx="83.328" cy="52.658" r="4.0972" style="fill:url(#radialGradient839-1);paint-order:markers fill stroke"/>
   <path d="m99.443 48.918-14.863 1.1556a1.4943 2.397 0 0 0-1.3527 2.3825 1.4943 2.397 0 0 0 1.433 2.3923v0.0083l14.732 1.0811z" style="fill:url(#linearGradient3886);paint-order:markers fill stroke"/>
   <ellipse cx="99.477" cy="52.47" rx="2.6047" ry="3.5098" style="fill:url(#linearGradient3888);paint-order:markers fill stroke"/>
   <ellipse cx="99.477" cy="52.47" rx="2.0553" ry="2.7904" style="fill:url(#radialGradient839-3-6);paint-order:markers fill stroke"/>
  </g>
  <g transform="matrix(.65955 0 0 .65955 -10.009 31.007)">
   <path d="m86.985 73.772-7.3139-1e-6 -3.6569-6.334 3.6569-6.334h7.3139l3.6569 6.334z" style="fill:url(#linearGradient4045);paint-order:markers fill stroke;stroke-width:.311;stroke:url(#linearGradient4047)"/>
   <circle transform="rotate(150)" cx="-38.445" cy="-100.07" r="4.54" style="fill:url(#linearGradient4049);paint-order:markers fill stroke"/>
   <circle cx="83.328" cy="67.438" r="4.0972" style="fill:url(#radialGradient839-2-8);paint-order:markers fill stroke"/>
   <path d="m67.213 63.698 14.863 1.1556a1.4943 2.397 0 0 1 1.3527 2.3825 1.4943 2.397 0 0 1-1.433 2.3923v0.0083l-14.732 1.0811z" style="fill:url(#linearGradient4051);paint-order:markers fill stroke"/>
   <ellipse transform="scale(-1,1)" cx="-67.179" cy="67.25" rx="2.6047" ry="3.5098" style="fill:url(#linearGradient4053);paint-order:markers fill stroke"/>
   <ellipse transform="scale(-1,1)" cx="-67.179" cy="67.25" rx="2.0553" ry="2.7904" style="fill:url(#radialGradient839-3-7-3);paint-order:markers fill stroke"/>
  </g>
 </g>
</svg>
