<svg xmlns="http://www.w3.org/2000/svg" xmlns:svg="http://www.w3.org/2000/svg" id="svg2" width="462.864" height="284.695" version="1.1" viewBox="0 0 433.935 266.902"><defs id="defs4"><marker id="Arrow2Lend" orient="auto" refX="0" refY="0" style="overflow:visible"><path id="path4246" d="M 8.7185878,4.0337352 -2.2072895,0.01601326 8.7185884,-4.0017078 c -1.7454984,2.3720609 -1.7354408,5.6174519 -6e-7,8.035443 z" transform="matrix(-1.1,0,0,-1.1,-1.1,0)" style="fill-rule:evenodd;stroke-width:.625;stroke-linejoin:round"/></marker><marker style="overflow:visible" id="marker5422" orient="auto" refX="0" refY="0"><path style="fill:#000;fill-opacity:1;fill-rule:evenodd;stroke:#000;stroke-width:.625;stroke-linejoin:round;stroke-opacity:1" id="path5424" d="M 8.7185878,4.0337352 -2.2072895,0.01601326 8.7185884,-4.0017078 c -1.7454984,2.3720609 -1.7354408,5.6174519 -6e-7,8.035443 z" transform="matrix(-1.1,0,0,-1.1,-1.1,0)"/></marker><marker id="Arrow2Lend-7" orient="auto" refX="0" refY="0" style="overflow:visible"><path id="path4246-0" d="M 8.7185878,4.0337352 -2.2072895,0.01601326 8.7185884,-4.0017078 c -1.7454984,2.3720609 -1.7354408,5.6174519 -6e-7,8.035443 z" transform="matrix(-1.1,0,0,-1.1,-1.1,0)" style="fill:#000;fill-opacity:1;fill-rule:evenodd;stroke:#000;stroke-width:.625;stroke-linejoin:round;stroke-opacity:1"/></marker><marker id="Arrow2Lend-7-3" orient="auto" refX="0" refY="0" style="overflow:visible"><path id="path4246-0-6" d="M 8.7185878,4.0337352 -2.2072895,0.01601326 8.7185884,-4.0017078 c -1.7454984,2.3720609 -1.7354408,5.6174519 -6e-7,8.035443 z" transform="matrix(-1.1,0,0,-1.1,-1.1,0)" style="fill:#000;fill-opacity:1;fill-rule:evenodd;stroke:#000;stroke-width:.625;stroke-linejoin:round;stroke-opacity:1"/></marker><marker id="Arrow2Lend-7-3-6" orient="auto" refX="0" refY="0" style="overflow:visible"><path id="path4246-0-6-2" d="M 8.7185878,4.0337352 -2.2072895,0.01601326 8.7185884,-4.0017078 c -1.7454984,2.3720609 -1.7354408,5.6174519 -6e-7,8.035443 z" transform="matrix(-1.1,0,0,-1.1,-1.1,0)" style="fill:#000;fill-opacity:1;fill-rule:evenodd;stroke:#000;stroke-width:.625;stroke-linejoin:round;stroke-opacity:1"/></marker><marker id="Arrow2Lend-7-3-6-2" orient="auto" refX="0" refY="0" style="overflow:visible"><path id="path4246-0-6-2-0" d="M 8.7185878,4.0337352 -2.2072895,0.01601326 8.7185884,-4.0017078 c -1.7454984,2.3720609 -1.7354408,5.6174519 -6e-7,8.035443 z" transform="matrix(-1.1,0,0,-1.1,-1.1,0)" style="fill:#000;fill-opacity:1;fill-rule:evenodd;stroke:#000;stroke-width:.625;stroke-linejoin:round;stroke-opacity:1"/></marker><marker style="overflow:visible" id="marker5422-7" orient="auto" refX="0" refY="0"><path style="fill:#000;fill-opacity:1;fill-rule:evenodd;stroke:#000;stroke-width:.625;stroke-linejoin:round;stroke-opacity:1" id="path5424-3" d="M 8.7185878,4.0337352 -2.2072895,0.01601326 8.7185884,-4.0017078 c -1.7454984,2.3720609 -1.7354408,5.6174519 -6e-7,8.035443 z" transform="matrix(-1.1,0,0,-1.1,-1.1,0)"/></marker><marker style="overflow:visible" id="marker5422-7-1" orient="auto" refX="0" refY="0"><path style="fill:#000;fill-opacity:1;fill-rule:evenodd;stroke:#000;stroke-width:.625;stroke-linejoin:round;stroke-opacity:1" id="path5424-3-2" d="M 8.7185878,4.0337352 -2.2072895,0.01601326 8.7185884,-4.0017078 c -1.7454984,2.3720609 -1.7354408,5.6174519 -6e-7,8.035443 z" transform="matrix(-1.1,0,0,-1.1,-1.1,0)"/></marker><marker style="overflow:visible" id="marker5422-7-3" orient="auto" refX="0" refY="0"><path style="fill:#000;fill-opacity:1;fill-rule:evenodd;stroke:#000;stroke-width:.625;stroke-linejoin:round;stroke-opacity:1" id="path5424-3-1" d="M 8.7185878,4.0337352 -2.2072895,0.01601326 8.7185884,-4.0017078 c -1.7454984,2.3720609 -1.7354408,5.6174519 -6e-7,8.035443 z" transform="matrix(-1.1,0,0,-1.1,-1.1,0)"/></marker><marker id="Arrow2Lend-7-36" orient="auto" refX="0" refY="0" style="overflow:visible"><path id="path4246-0-4" d="M 8.7185878,4.0337352 -2.2072895,0.01601326 8.7185884,-4.0017078 c -1.7454984,2.3720609 -1.7354408,5.6174519 -6e-7,8.035443 z" transform="matrix(-1.1,0,0,-1.1,-1.1,0)" style="fill:#000;fill-opacity:1;fill-rule:evenodd;stroke:#000;stroke-width:.625;stroke-linejoin:round;stroke-opacity:1"/></marker><marker id="Arrow2Lend-7-36-0" orient="auto" refX="0" refY="0" style="overflow:visible"><path id="path4246-0-4-3" d="M 8.7185878,4.0337352 -2.2072895,0.01601326 8.7185884,-4.0017078 c -1.7454984,2.3720609 -1.7354408,5.6174519 -6e-7,8.035443 z" transform="matrix(-1.1,0,0,-1.1,-1.1,0)" style="fill:#000;fill-opacity:1;fill-rule:evenodd;stroke:#000;stroke-width:.625;stroke-linejoin:round;stroke-opacity:1"/></marker><marker style="overflow:visible" id="marker5422-7-6" orient="auto" refX="0" refY="0"><path style="fill:#000;fill-opacity:1;fill-rule:evenodd;stroke:#000;stroke-width:.625;stroke-linejoin:round;stroke-opacity:1" id="path5424-3-6" d="M 8.7185878,4.0337352 -2.2072895,0.01601326 8.7185884,-4.0017078 c -1.7454984,2.3720609 -1.7354408,5.6174519 -6e-7,8.035443 z" transform="matrix(-1.1,0,0,-1.1,-1.1,0)"/></marker><marker style="overflow:visible" id="marker5422-7-2" orient="auto" refX="0" refY="0"><path style="fill:#000;fill-opacity:1;fill-rule:evenodd;stroke:#000;stroke-width:.625;stroke-linejoin:round;stroke-opacity:1" id="path5424-3-5" d="M 8.7185878,4.0337352 -2.2072895,0.01601326 8.7185884,-4.0017078 c -1.7454984,2.3720609 -1.7354408,5.6174519 -6e-7,8.035443 z" transform="matrix(-1.1,0,0,-1.1,-1.1,0)"/></marker></defs><metadata id="metadata7"/><g id="layer1" transform="translate(-128.48949,-98.247276)"><flowRoot id="flowRoot4205" transform="translate(2,0)" xml:space="preserve" style="font-style:normal;font-weight:400;font-size:13.88749981px;line-height:125%;font-family:sans-serif;text-align:start;letter-spacing:0;word-spacing:0;text-anchor:start;fill:#000;fill-opacity:1;stroke:none;stroke-width:1px;stroke-linecap:butt;stroke-linejoin:miter;stroke-opacity:1"><flowRegion id="flowRegion4207"><rect id="rect4209" width="107.581" height="21.718" x="170.716" y="317.981" style="text-align:start;text-anchor:start"/></flowRegion><flowPara id="flowPara4211"/></flowRoot><path style="fill:none;fill-rule:evenodd;stroke:#000;stroke-width:1;stroke-linecap:butt;stroke-linejoin:miter;stroke-miterlimit:4;stroke-dasharray:none;stroke-opacity:1;marker-end:url(#Arrow2Lend-7)" id="path4217-9" d="m 292.72967,131.23985 0,48.07519"/><path style="fill:none;fill-rule:evenodd;stroke:#000;stroke-width:1px;stroke-linecap:butt;stroke-linejoin:miter;stroke-opacity:1;marker-end:url(#marker5422-7)" id="path10674-6" d="m 456.5235,114.96673 24.71089,0 c 0,0 3.29348,0.0214 5.03408,1.83313 1.74059,1.81172 2.28955,5.74301 2.28955,5.74301 l -0.13892,20.98944"/><text style="font-style:normal;font-variant:normal;font-weight:400;font-stretch:normal;font-size:11.25px;line-height:125%;font-family:'DejaVu Sans';-inkscape-font-specification:'DejaVu Sans';text-align:start;letter-spacing:0;word-spacing:0;text-anchor:start;fill:#000;fill-opacity:1;stroke:none;stroke-width:1px;stroke-linecap:butt;stroke-linejoin:miter;stroke-opacity:1" id="text16241" x="296.752" y="143.887" xml:space="preserve"><tspan id="tspan16243" x="296.752" y="143.887"><tspan id="tspan16245" x="296.752" y="143.887">Yes</tspan></tspan></text><flowRoot id="flowRoot15597" transform="translate(2,0)" xml:space="preserve" style="font-style:normal;font-weight:400;font-size:13.88749981px;line-height:125%;font-family:sans-serif;text-align:start;letter-spacing:0;word-spacing:0;text-anchor:start;fill:#000;fill-opacity:1;stroke:none;stroke-width:1px;stroke-linecap:butt;stroke-linejoin:miter;stroke-opacity:1"><flowRegion id="flowRegion15599"><rect id="rect15601" width="45.714" height="13.929" x="594.286" y="250.219" style="text-align:start;text-anchor:start"/></flowRegion><flowPara id="flowPara15603"/></flowRoot><text style="font-style:normal;font-variant:normal;font-weight:400;font-stretch:normal;font-size:11.25px;line-height:125%;font-family:'DejaVu Sans';-inkscape-font-specification:'DejaVu Sans';text-align:start;letter-spacing:0;word-spacing:0;text-anchor:start;fill:#000;fill-opacity:1;stroke:none;stroke-width:1px;stroke-linecap:butt;stroke-linejoin:miter;stroke-opacity:1" id="text16274" x="459.883" y="276.733" xml:space="preserve"><tspan id="tspan16276" x="459.883" y="276.733"><tspan id="tspan16278" x="459.883" y="276.733">No</tspan></tspan></text><text style="font-style:normal;font-variant:normal;font-weight:400;font-stretch:normal;font-size:11.25px;line-height:125%;font-family:'DejaVu Sans';-inkscape-font-specification:'DejaVu Sans';text-align:start;letter-spacing:0;word-spacing:0;text-anchor:start;fill:#000;fill-opacity:1;stroke:none;stroke-width:1px;stroke-linecap:butt;stroke-linejoin:miter;stroke-opacity:1" id="text16280" x="296.769" y="226.627" xml:space="preserve"><tspan id="tspan16282" x="296.769" y="226.627"><tspan id="tspan16284" x="296.769" y="226.627">Yes</tspan></tspan></text><text style="font-style:normal;font-variant:normal;font-weight:400;font-stretch:normal;font-size:11.25px;line-height:125%;font-family:'DejaVu Sans';-inkscape-font-specification:'DejaVu Sans';text-align:start;letter-spacing:0;word-spacing:0;text-anchor:start;fill:#000;fill-opacity:1;stroke:none;stroke-width:1px;stroke-linecap:butt;stroke-linejoin:miter;stroke-opacity:1" id="text16268" x="296.769" y="309.813" xml:space="preserve"><tspan id="tspan16270" x="296.769" y="309.813"><tspan id="tspan16272" x="296.769" y="309.813">Yes</tspan></tspan></text><text style="font-style:normal;font-variant:normal;font-weight:400;font-stretch:normal;font-size:11.25px;line-height:125%;font-family:'DejaVu Sans';-inkscape-font-specification:'DejaVu Sans';text-align:start;letter-spacing:0;word-spacing:0;text-anchor:start;fill:#000;fill-opacity:1;stroke:none;stroke-width:1px;stroke-linecap:butt;stroke-linejoin:miter;stroke-opacity:1" id="text16247" x="459.866" y="110.807" xml:space="preserve"><tspan id="tspan16249" x="459.866" y="110.807"><tspan id="tspan16251" x="459.866" y="110.807">No</tspan></tspan></text><text style="font-style:normal;font-variant:normal;font-weight:400;font-stretch:normal;font-size:11.25px;line-height:125%;font-family:'DejaVu Sans';-inkscape-font-specification:'DejaVu Sans';text-align:start;letter-spacing:0;word-spacing:0;text-anchor:start;fill:#000;fill-opacity:1;stroke:none;stroke-width:1px;stroke-linecap:butt;stroke-linejoin:miter;stroke-opacity:1" id="text16286" x="459.883" y="193.547" xml:space="preserve"><tspan id="tspan16288" x="459.883" y="193.547"><tspan id="tspan16290" x="459.883" y="193.547">No</tspan></tspan></text><flowRoot id="flowRoot16320" transform="translate(134.86593,-359.35426)" xml:space="preserve" style="font-style:normal;font-weight:400;font-size:13.88749981px;line-height:125%;font-family:sans-serif;text-align:center;letter-spacing:0;word-spacing:0;text-anchor:middle;fill:#000;fill-opacity:1;stroke:none;stroke-width:1px;stroke-linecap:butt;stroke-linejoin:miter;stroke-opacity:1"><flowRegion id="flowRegion16322"><rect id="rect16324" width="57.679" height="21.25" x="177.857" y="500.893"/></flowRegion><flowPara id="flowPara16326"/></flowRoot><text style="font-style:normal;font-weight:400;font-size:13.88749981px;line-height:125%;font-family:sans-serif;text-align:start;letter-spacing:0;word-spacing:0;text-anchor:start;fill:#000;fill-opacity:1;stroke:none;stroke-width:1px;stroke-linecap:butt;stroke-linejoin:miter;stroke-opacity:1" id="text20084" x="38.876" y="120.144" xml:space="preserve"><tspan id="tspan20086" x="165.121" y="120.144"><tspan id="tspan20088" x="165.121" y="120.144" style="text-align:start;text-anchor:start">Is the situation actually exceptional?</tspan></tspan></text><text style="font-style:normal;font-weight:400;font-size:13.88749981px;line-height:125%;font-family:sans-serif;text-align:start;letter-spacing:0;word-spacing:0;text-anchor:start;fill:#000;fill-opacity:1;stroke:none;stroke-width:1px;stroke-linecap:butt;stroke-linejoin:miter;stroke-opacity:1" id="text20078" x="3.578" y="202.883" xml:space="preserve"><tspan id="tspan20080" x="147.773" y="202.883"><tspan id="tspan20082" x="147.773" y="202.883" style="text-align:start;text-anchor:start">Can the client recover from the situation?</tspan></tspan></text><rect style="fill:none;fill-opacity:1;stroke:#000;stroke-width:.91498137;stroke-miterlimit:4;stroke-dasharray:none;stroke-dashoffset:0;stroke-opacity:1" id="rect4136-1" width="327.565" height="32.524" x="128.965" y="264.63" ry="16.262"/><text style="font-style:normal;font-weight:400;font-size:13.88749981px;line-height:125%;font-family:sans-serif;text-align:start;letter-spacing:0;word-spacing:0;text-anchor:start;fill:#000;fill-opacity:1;stroke:none;stroke-width:1px;stroke-linecap:butt;stroke-linejoin:miter;stroke-opacity:1" id="text20072" x="-.952" y="286.069" xml:space="preserve"><tspan id="tspan20074" x="140.293" y="286.069"><tspan id="tspan20076" x="140.293" y="286.069" style="text-align:start;text-anchor:start">Is the situation unpredictable for the client?</tspan></tspan></text><rect style="fill:none;fill-opacity:1;stroke:#000;stroke-width:.91440803;stroke-miterlimit:4;stroke-dasharray:none;stroke-dashoffset:0;stroke-opacity:1" id="rect4136-1-9" width="327.12" height="32.527" x="127.635" y="98.713" ry="16.264" transform="matrix(1,0,0.01334748,0.99991092,0,0)"/><rect style="fill:none;fill-opacity:1;stroke:#000;stroke-width:.91498137;stroke-miterlimit:4;stroke-dasharray:none;stroke-dashoffset:0;stroke-opacity:1" id="rect4136-1-2" width="327.565" height="32.524" x="128.965" y="181.444" ry="16.262"/><text style="font-style:normal;font-weight:400;font-size:13.88749981px;line-height:125%;font-family:sans-serif;text-align:start;letter-spacing:0;word-spacing:0;text-anchor:start;fill:#000;fill-opacity:1;stroke:none;stroke-width:1px;stroke-linecap:butt;stroke-linejoin:miter;stroke-opacity:1" id="text20054" x="346.659" y="159.755" xml:space="preserve"><tspan id="tspan20056" x="417.182" y="159.755"><tspan id="tspan20058" x="417.182" y="159.755" style="text-align:start;text-anchor:start">Custom return value</tspan></tspan></text><path style="fill:none;fill-rule:evenodd;stroke:#000;stroke-width:1;stroke-linecap:butt;stroke-linejoin:miter;stroke-miterlimit:4;stroke-dasharray:none;stroke-opacity:1;marker-end:url(#Arrow2Lend-7-36)" id="path4217-9-7" d="m 292.72967,214.42567 0,48.07519"/><path style="fill:none;fill-rule:evenodd;stroke:#000;stroke-width:1;stroke-linecap:butt;stroke-linejoin:miter;stroke-miterlimit:4;stroke-dasharray:none;stroke-opacity:1;marker-end:url(#Arrow2Lend-7-36-0)" id="path4217-9-7-4" d="m 292.72967,297.61148 0,48.07519"/><path style="fill:none;fill-rule:evenodd;stroke:#000;stroke-width:1px;stroke-linecap:butt;stroke-linejoin:miter;stroke-opacity:1" id="path10674-6-0" d="m 456.98745,280.74285 24.71089,0 c 0,0 3.29348,0.0214 5.03408,1.83313 1.74059,1.81173 2.28955,5.74302 2.28955,5.74302"/><path style="fill:none;fill-rule:evenodd;stroke:#000;stroke-width:1px;stroke-linecap:butt;stroke-linejoin:miter;stroke-opacity:1;marker-end:url(#marker5422-7-2)" id="path10674-6-8" d="m 456.98745,197.55704 24.71089,0 c 0,0 3.29348,0.0214 5.03408,1.83313 1.74059,1.81173 2.28955,5.74302 2.28955,5.74302 l -0.13892,140.90444"/><text style="font-style:normal;font-weight:400;font-size:13.88749981px;line-height:125%;font-family:sans-serif;text-align:start;letter-spacing:0;word-spacing:0;text-anchor:start;fill:#000;fill-opacity:1;stroke:none;stroke-width:1px;stroke-linecap:butt;stroke-linejoin:miter;stroke-opacity:1" id="text20066" x="226.731" y="361.91" xml:space="preserve"><tspan id="tspan20068" x="226.731" y="361.91">Checked Exception</tspan></text><text style="font-style:normal;font-weight:400;font-size:13.88749981px;line-height:125%;font-family:sans-serif;text-align:start;letter-spacing:0;word-spacing:0;text-anchor:start;fill:#000;fill-opacity:1;stroke:none;stroke-width:1px;stroke-linecap:butt;stroke-linejoin:miter;stroke-opacity:1" id="text20060" x="414.246" y="362.261" xml:space="preserve"><tspan id="tspan20062" x="414.246" y="362.261">Unchecked Exception</tspan></text></g></svg>