<?xml version="1.0" encoding="UTF-8"?>
<svg width="119.81mm" height="27.253mm" version="1.1" viewBox="0 0 119.81 27.253" xmlns="http://www.w3.org/2000/svg" xmlns:xlink="http://www.w3.org/1999/xlink">
 <g transform="translate(-88.753 -53.787)">
  <text x="134.94063" y="57.815002" style="fill:#000000;font-family:sans-serif;font-size:5.4276px;letter-spacing:0px;line-height:1.25;stroke-width:.13569;word-spacing:0px" xml:space="preserve"><tspan x="134.94063" y="57.815002" style="stroke-width:.13569">10010110</tspan></text>
  <ellipse cx="114.35" cy="62.605" rx="5.9506" ry="5.6758" style="fill-opacity:.045662;fill:#271bff;paint-order:markers fill stroke;stroke-width:.30771;stroke:#000"/>
  <ellipse cx="128.12" cy="65.394" rx="6.0663" ry="5.9584" style="fill-opacity:.047059;fill:#271bff;paint-order:markers fill stroke;stroke-width:.30771;stroke:#000"/>
  <path d="m134.23 65.059s-12.031 5.8867-13.603 6.9452c-1.5716 1.0585-1.6959 1.3297-2.9697 2.7541s-4.1192 5.7717-4.1192 5.7717" style="fill:none;stroke-linecap:round;stroke-width:1.0077;stroke:#000"/>
  <path d="m120.29 61.988c0.95068-0.65944 1.7567-0.57106 2.3803 0.46043" style="fill:none;stroke-width:.56413;stroke:#000"/>
  <path d="m108.48 60.677s-6.8809 2.113-9.388 2.8739c-2.5071 0.76087-4.5322 1.1977-5.652 1.7004-1.1198 0.50267-0.82699 0.36428-1.2453 0.76637-0.41835 0.40209-0.68916 0.69592-1.1256 1.6764-0.43644 0.9805-0.85184 3.2985-1.0777 4.2869s-0.1866 1.1732-0.33528 1.6285c-0.14869 0.45529-0.50293 1.1016-0.50293 1.1016" style="fill:none;stroke-linecap:round;stroke-width:.8026;stroke:#000"/>
  <g transform="matrix(.34353 .024469 -.027424 .38501 85.897 47.45)" aria-label="-106">
   <path d="m114.64 38.546s2.2266 0.04871 2.2266 0.04871l-4e-3 0.76921-2.2224-0.0684v-0.74951z" style="stroke-width:.26458"/>
   <path d="m118.37 40.878 1.465 0.06954 0.0709-5.5505-1.6172 0.37252 8e-3 -0.89286s1.6117-0.39033 1.6117-0.39033l0.93655-0.02323-0.0981 6.5277 1.546 0.07339-0.0158 0.8378-3.9145-0.22156 7e-3 -0.80245z" style="stroke-width:.26458"/>
   <path d="m126.67 35.027c-0.54803 0.0096-0.96396 0.28691-1.2506 0.82873-0.28081 0.53385-0.43375 1.3313-0.46045 2.3914-0.0265 1.0512 0.0853 1.8417 0.33573 2.3766 0.2547 0.53328 0.64934 0.81377 1.1878 0.84046 0.54811 0.02717 0.9708-0.21804 1.2652-0.73909 0.30058-0.52881 0.46982-1.3366 0.50597-2.4242 0.0365-1.097-0.0799-1.9214-0.34853-2.4674-0.26407-0.54785-0.67719-0.81624-1.2351-0.8065zm0.0249-0.85307c0.89717-0.0236 1.5811 0.31809 2.0415 1.0288 0.46714 0.71162 0.67724 1.7538 0.62827 3.1163-0.0485 1.3499-0.32972 2.3653-0.83872 3.046-0.49859 0.66843-1.1901 0.97352-2.0674 0.9225-0.86152-0.0501-1.5017-0.42176-1.93-1.1125-0.42235-0.6897-0.61815-1.6682-0.58918-2.9446 0.0292-1.2878 0.2721-2.2762 0.73286-2.9656 0.47022-0.70193 1.142-1.0678 2.0227-1.0909z" style="stroke-width:.26458"/>
   <path d="m134.12 37.933c-0.55159-0.0065-0.99328 0.16201-1.3275 0.50354-0.32764 0.33893-0.5034 0.80603-0.52914 1.402-0.0255 0.59055 0.10885 1.0634 0.40398 1.4209 0.30056 0.35565 0.72189 0.54748 1.2673 0.57451 0.5512 0.02732 0.99974-0.12468 1.3433-0.45819 0.35063-0.33978 0.54286-0.81561 0.57464-1.4268 0.0321-0.61682-0.11083-1.107-0.42769-1.4679-0.31123-0.35917-0.74733-0.54148-1.3048-0.54808zm2.7106-3.6718-0.0581 1.0828c-0.31916-0.1363-0.64257-0.2387-0.97007-0.30744-0.32136-0.06841-0.64059-0.09978-0.95764-0.09442-0.82523 0.01394-1.4594 0.28048-1.9086 0.79562-0.44045 0.50962-0.71027 1.2707-0.81247 2.2826 0.24582-0.31973 0.5493-0.5646 0.9114-0.73413 0.36509-0.17461 0.76545-0.26176 1.2017-0.26041 0.92939 0.0029 1.6608 0.26894 2.1846 0.80128 0.53253 0.53275 0.77531 1.2554 0.7253 2.1617-0.0487 0.88315-0.37804 1.5756-0.98198 2.075-0.59589 0.49281-1.3554 0.70974-2.2722 0.65642-1.0311-0.05996-1.7901-0.46385-2.2898-1.2087-0.49612-0.74331-0.71574-1.7953-0.66115-3.1666 0.0516-1.2961 0.41763-2.3367 1.1065-3.1255 0.70068-0.80596 1.6288-1.2292 2.7949-1.2598 0.31764-0.0084 0.63787 0.01235 0.96065 0.06239 0.32896 0.05022 0.67125 0.12985 1.027 0.23917z" style="stroke-width:.26458"/>
  </g>
  <g transform="matrix(.34353 .024469 -.027424 .38501 72.679 44.638)" aria-label="-106">
   <path d="m114.64 38.546s2.2266 0.04871 2.2266 0.04871l-4e-3 0.76921-2.2224-0.0684v-0.74951z" style="stroke-width:.26458"/>
   <path d="m118.37 40.878 1.465 0.06954 0.0709-5.5505-1.6172 0.37252 8e-3 -0.89286s1.6117-0.39033 1.6117-0.39033l0.93655-0.02323-0.0981 6.5277 1.546 0.07339-0.0158 0.8378-3.9145-0.22156 7e-3 -0.80245z" style="stroke-width:.26458"/>
   <path d="m126.67 35.027c-0.54803 0.0096-0.96396 0.28691-1.2506 0.82873-0.28081 0.53385-0.43375 1.3313-0.46045 2.3914-0.0265 1.0512 0.0853 1.8417 0.33573 2.3766 0.2547 0.53328 0.64934 0.81377 1.1878 0.84046 0.54811 0.02717 0.9708-0.21804 1.2652-0.73909 0.30058-0.52881 0.46982-1.3366 0.50597-2.4242 0.0365-1.097-0.0799-1.9214-0.34853-2.4674-0.26407-0.54785-0.67719-0.81624-1.2351-0.8065zm0.0249-0.85307c0.89717-0.0236 1.5811 0.31809 2.0415 1.0288 0.46714 0.71162 0.67724 1.7538 0.62827 3.1163-0.0485 1.3499-0.32972 2.3653-0.83872 3.046-0.49859 0.66843-1.1901 0.97352-2.0674 0.9225-0.86152-0.0501-1.5017-0.42176-1.93-1.1125-0.42235-0.6897-0.61815-1.6682-0.58918-2.9446 0.0292-1.2878 0.2721-2.2762 0.73286-2.9656 0.47022-0.70193 1.142-1.0678 2.0227-1.0909z" style="stroke-width:.26458"/>
   <path d="m134.12 37.933c-0.55159-0.0065-0.99328 0.16201-1.3275 0.50354-0.32764 0.33893-0.5034 0.80603-0.52914 1.402-0.0255 0.59055 0.10885 1.0634 0.40398 1.4209 0.30056 0.35565 0.72189 0.54748 1.2673 0.57451 0.5512 0.02732 0.99974-0.12468 1.3433-0.45819 0.35063-0.33978 0.54286-0.81561 0.57464-1.4268 0.0321-0.61682-0.11083-1.107-0.42769-1.4679-0.31123-0.35917-0.74733-0.54148-1.3048-0.54808zm2.7106-3.6718-0.0581 1.0828c-0.31916-0.1363-0.64257-0.2387-0.97007-0.30744-0.32136-0.06841-0.64059-0.09978-0.95764-0.09442-0.82523 0.01394-1.4594 0.28048-1.9086 0.79562-0.44045 0.50962-0.71027 1.2707-0.81247 2.2826 0.24582-0.31973 0.5493-0.5646 0.9114-0.73413 0.36509-0.17461 0.76545-0.26176 1.2017-0.26041 0.92939 0.0029 1.6608 0.26894 2.1846 0.80128 0.53253 0.53275 0.77531 1.2554 0.7253 2.1617-0.0487 0.88315-0.37804 1.5756-0.98198 2.075-0.59589 0.49281-1.3554 0.70974-2.2722 0.65642-1.0311-0.05996-1.7901-0.46385-2.2898-1.2087-0.49612-0.74331-0.71574-1.7953-0.66115-3.1666 0.0516-1.2961 0.41763-2.3367 1.1065-3.1255 0.70068-0.80596 1.6288-1.2292 2.7949-1.2598 0.31764-0.0084 0.63787 0.01235 0.96065 0.06239 0.32896 0.05022 0.67125 0.12985 1.027 0.23917z" style="stroke-width:.26458"/>
  </g>
  <ellipse transform="scale(-1,1)" cx="-182.97" cy="62.528" rx="5.9506" ry="5.6758" style="fill-opacity:.045662;fill:#271bff;paint-order:markers fill stroke;stroke-width:.30771;stroke:#000"/>
  <ellipse transform="scale(-1,1)" cx="-169.2" cy="65.318" rx="6.0663" ry="5.9584" style="fill-opacity:.047059;fill:#271bff;paint-order:markers fill stroke;stroke-width:.30771;stroke:#000"/>
  <path d="m163.09 64.983s12.031 5.8866 13.603 6.9452c1.5716 1.0585 1.6959 1.3297 2.9697 2.7541 1.2738 1.4244 4.1192 5.7717 4.1192 5.7717" style="fill:none;stroke-linecap:round;stroke-width:1.0077;stroke:#000"/>
  <path d="m177.03 61.911c-0.95068-0.65944-1.7567-0.57106-2.3803 0.46043" style="fill:none;stroke-width:.56413;stroke:#000"/>
  <path d="m188.84 60.6s6.8809 2.113 9.388 2.8739 4.5322 1.1977 5.652 1.7004c1.1198 0.50267 0.82699 0.36428 1.2453 0.76637 0.41835 0.40208 0.68916 0.69592 1.1256 1.6764 0.43645 0.98049 0.85184 3.2985 1.0777 4.2868 0.22586 0.98834 0.1866 1.1732 0.33528 1.6285 0.14868 0.45529 0.50293 1.1016 0.50293 1.1016" style="fill:none;stroke-linecap:round;stroke-width:.8026;stroke:#000"/>
  <g transform="matrix(.43034 -.028724 .028724 .43034 148.14 8.362)" aria-label="150">
   <path d="m63.42 133.7 1.9975-0.11387v-5.2669s-2.1766 0.35895-2.1766 0.35895v-0.86776l2.1647-0.34202 1.1881-1e-3v6.052l1.8864-0.10754v0.76412l-5.0601 0.3248v-0.80045z" style="stroke-width:.26458"/>
   <path d="m70.74 127.46s4.0991-5e-3 4.0991-5e-3v0.71848l-3.1131 0.0259v1.595c0.15463-0.0472 0.3088-0.0827 0.46251-0.10644 0.15325-0.0266 0.30605-0.0416 0.45839-0.045 0.85704-0.0193 1.5257 0.15995 2.0131 0.53473 0.48273 0.37117 0.72236 0.88328 0.72236 1.539 0 0.67535-0.24621 1.2146-0.7423 1.6206-0.50105 0.40732-1.2161 0.64277-2.1542 0.70413-0.32704 0.0214-0.66319 0.0202-1.0086-4e-3 -0.3442-0.0245-0.70324-0.0718-1.0774-0.14211v-0.89599c0.32396 0.1262 0.65661 0.21445 0.99777 0.26511 0.33893 0.0503 0.69487 0.0645 1.0674 0.0428 0.59672-0.0348 1.0644-0.19186 1.4064-0.47021 0.33971-0.27648 0.50871-0.6348 0.50871-1.0764 0-0.44155-0.169-0.78501-0.50871-1.0316-0.34201-0.24828-0.80965-0.36428-1.4064-0.34656-0.2818 8e-3 -0.56515 0.0429-0.85007 0.10374-0.28295 0.0611-0.57459 0.15201-0.87505 0.27301v-3.2996z" style="stroke-width:.26458"/>
   <path d="m79.303 127.99c-0.47373 3e-3 -0.83366 0.21471-1.0772 0.6361-0.24164 0.42074-0.36291 1.0527-0.36291 1.8943 0 0.83885 0.12127 1.4629 0.36291 1.8705 0.24351 0.40273 0.60344 0.58934 1.0772 0.56156 0.47207-0.0277 0.82234-0.25239 1.0534-0.67277 0.23291-0.42112 0.34894-1.038 0.34894-1.8523 0-0.81693-0.11603-1.4263-0.34894-1.8295-0.2311-0.40791-0.58136-0.61104-1.0534-0.60785zm0-0.64604c0.75249 0 1.3187 0.26415 1.705 0.78919 0.38609 0.51808 0.57795 1.2721 0.57795 2.2654 0 0.99059-0.19186 1.7572-0.57795 2.3032-0.38636 0.54768-0.95255 0.84753-1.705 0.89676-0.76453 0.05-1.3576-0.18148-1.7728-0.69835-0.41557-0.52423-0.62468-1.3082-0.62468-2.3484 0-1.043 0.20912-1.8406 0.62468-2.3893 0.41516-0.54677 1.0083-0.81841 1.7728-0.81841z" style="stroke-width:.26458"/>
  </g>
  <g transform="matrix(.43034 -.028724 .028724 .43034 134.62 10.97)" aria-label="150">
   <path d="m63.42 133.7 1.9975-0.11387v-5.2669s-2.1766 0.35895-2.1766 0.35895v-0.86776l2.1647-0.34202 1.1881-1e-3v6.052l1.8864-0.10754v0.76412l-5.0601 0.3248v-0.80045z" style="stroke-width:.26458"/>
   <path d="m70.74 127.46s4.0991-5e-3 4.0991-5e-3v0.71848l-3.1131 0.0259v1.595c0.15463-0.0472 0.3088-0.0827 0.46251-0.10644 0.15325-0.0266 0.30605-0.0416 0.45839-0.045 0.85704-0.0193 1.5257 0.15995 2.0131 0.53473 0.48273 0.37117 0.72236 0.88328 0.72236 1.539 0 0.67535-0.24621 1.2146-0.7423 1.6206-0.50105 0.40732-1.2161 0.64277-2.1542 0.70413-0.32704 0.0214-0.66319 0.0202-1.0086-4e-3 -0.3442-0.0245-0.70324-0.0718-1.0774-0.14211v-0.89599c0.32396 0.1262 0.65661 0.21445 0.99777 0.26511 0.33893 0.0503 0.69487 0.0645 1.0674 0.0428 0.59672-0.0348 1.0644-0.19186 1.4064-0.47021 0.33971-0.27648 0.50871-0.6348 0.50871-1.0764 0-0.44155-0.169-0.78501-0.50871-1.0316-0.34201-0.24828-0.80965-0.36428-1.4064-0.34656-0.2818 8e-3 -0.56515 0.0429-0.85007 0.10374-0.28295 0.0611-0.57459 0.15201-0.87505 0.27301v-3.2996z" style="stroke-width:.26458"/>
   <path d="m79.303 127.99c-0.47373 3e-3 -0.83366 0.21471-1.0772 0.6361-0.24164 0.42074-0.36291 1.0527-0.36291 1.8943 0 0.83885 0.12127 1.4629 0.36291 1.8705 0.24351 0.40273 0.60344 0.58934 1.0772 0.56156 0.47207-0.0277 0.82234-0.25239 1.0534-0.67277 0.23291-0.42112 0.34894-1.038 0.34894-1.8523 0-0.81693-0.11603-1.4263-0.34894-1.8295-0.2311-0.40791-0.58136-0.61104-1.0534-0.60785zm0-0.64604c0.75249 0 1.3187 0.26415 1.705 0.78919 0.38609 0.51808 0.57795 1.2721 0.57795 2.2654 0 0.99059-0.19186 1.7572-0.57795 2.3032-0.38636 0.54768-0.95255 0.84753-1.705 0.89676-0.76453 0.05-1.3576-0.18148-1.7728-0.69835-0.41557-0.52423-0.62468-1.3082-0.62468-2.3484 0-1.043 0.20912-1.8406 0.62468-2.3893 0.41516-0.54677 1.0083-0.81841 1.7728-0.81841z" style="stroke-width:.26458"/>
  </g>
 </g>
</svg>
