<?xml version="1.0" encoding="UTF-8"?>
<svg version="1.1" viewBox="0 0 98.703 71.192" xmlns="http://www.w3.org/2000/svg" xmlns:xlink="http://www.w3.org/1999/xlink">
 <defs>
  <linearGradient id="linearGradient16781" x1="36.339" x2="85.973" y1="153.65" y2="181.98" gradientTransform="translate(-5.5133 -70.216)" gradientUnits="userSpaceOnUse">
   <stop style="stop-color:#b3b3fa" offset="0"/>
   <stop style="stop-color:#c0c0fb" offset="1"/>
  </linearGradient>
  <linearGradient id="linearGradient16773" x1="85.671" x2="134.09" y1="158.72" y2="147.98" gradientTransform="translate(-5.5133 -70.216)" gradientUnits="userSpaceOnUse">
   <stop style="stop-color:#b3b3fa" offset="0"/>
   <stop style="stop-color:#9a9af8" offset="1"/>
  </linearGradient>
 </defs>
 <g transform="translate(-30.023 -50.493)">
  <path d="m30.174 80.635v30.622l58.36-37.045v-21.383z" style="fill-rule:evenodd;fill:#353564;paint-order:markers fill stroke"/>
  <path d="m30.174 111.26 50.134 10.277 48.267-43.766-40.041-3.5554z" style="fill-rule:evenodd;fill:#afafde;paint-order:markers fill stroke"/>
  <path d="m88.535 52.83 40.041 1.066v23.872l-40.041-3.5554z" style="fill-rule:evenodd;fill:#e9e9ff;paint-order:markers fill stroke"/>
  <path d="m30.174 80.635 50.134 6.4888 48.267-33.228-40.041-1.066z" style="fill-rule:evenodd;fill:#4d4d9f;paint-order:markers fill stroke;stroke-linejoin:round;stroke-width:.302;stroke:#000"/>
  <path d="m89.291 50.626c-0.166-3e-3 -0.29962 0.12908-0.29962 0.29694v21.523c0 0.16786 0.13363 0.31426 0.29962 0.32827l37.624 3.1764c0.16599 0.014 0.29963-0.12481 0.29963-0.3113v-23.911c0-0.18649-0.13364-0.3393-0.29963-0.34264-12.541-0.25299-25.082-0.50598-37.624-0.75897z" style="fill:#9944bc;paint-order:markers fill stroke;stroke-linejoin:round;stroke-width:.265;stroke:#000"/>
  <path d="m88.184 51.138c-0.16698-4e-3 -0.3014 0.12968-0.3014 0.29892v21.7c0 0.16925 0.13442 0.31713 0.3014 0.33161l37.846 3.282c0.16698 0.0145 0.3014-0.12535 0.3014-0.31355v-24.13c0-0.1882-0.13442-0.3426-0.3014-0.34623-12.615-0.2741-25.231-0.5482-37.846-0.8223z" style="fill:#ae6bca;paint-order:markers fill stroke;stroke-linejoin:round;stroke-width:.265;stroke:#000"/>
  <path d="m86.963 51.703c-0.16805-4e-3 -0.30333 0.13035-0.30333 0.30111v21.896c0 0.17077 0.13528 0.3203 0.30333 0.3353l38.089 3.4001c0.16805 0.015 0.30332-0.12593 0.30332-0.31601v-24.372c0-0.19008-0.13527-0.34626-0.30332-0.3502-12.696-0.29781-25.393-0.59561-38.089-0.89342z" style="fill:#bc48ed;paint-order:markers fill stroke;stroke-linejoin:round;stroke-width:.265;stroke:#000"/>
  <path d="m85.415 52.42c-0.1694-4e-3 -0.30577 0.13117-0.30577 0.30387v22.143c0 0.1727 0.13637 0.32433 0.30577 0.34001l38.395 3.5525c0.16941 0.01569 0.30579-0.12664 0.30579-0.31913v-24.68c0-0.19248-0.13638-0.35092-0.30579-0.35527-12.798-0.32847-25.597-0.65694-38.395-0.98541z" style="fill:#ae6bca;paint-order:markers fill stroke;stroke-linejoin:round;stroke-width:.265;stroke:#000"/>
  <path d="m83.923 53.11c-0.17069-5e-3 -0.30809 0.13194-0.30809 0.30651v22.382c0 0.17456 0.1374 0.32823 0.30809 0.34456l38.687 3.702c0.17069 0.0163 0.30809-0.12732 0.30809-0.32212v-24.977c0-0.1948-0.1374-0.35543-0.30809-0.36018-12.896-0.35867-25.791-0.71734-38.687-1.076z" style="fill:#a052c1;paint-order:markers fill stroke;stroke-linejoin:round;stroke-width:.265;stroke:#000"/>
  <path d="m113.95 50.839c-0.1721-3e-3 -0.29459 0.15074-0.31065 0.34273v3.6428s-31.377-0.94818-31.377-0.94818c-0.1721-5e-3 -0.31064 0.13279-0.31064 0.30943v22.648c0 0.17663 0.13854 0.33256 0.31064 0.34964l39.008 3.8711c0.17209 0.01709 0.31065-0.12805 0.31065-0.32543v-25.308c0-0.19738-0.13856-0.36045-0.31065-0.36565l-0.64802-0.0196v-3.7117c0-0.19688-0.13884-0.35805-0.31096-0.36139l-6.3611-0.12343" style="fill:#c435ff;paint-order:markers fill stroke;stroke-linejoin:round;stroke-width:.265;stroke:#000"/>
  <path d="m80.614 54.642c-0.1735-6e-3 -0.31316 0.13362-0.31316 0.31232v22.912c0 0.1787 0.13967 0.3369 0.31316 0.35473l39.324 4.0432c0.1735 0.01781 0.31316-0.12876 0.31316-0.32872v-25.639c0-0.19997-0.13966-0.36548-0.31316-0.37115-13.108-0.42791-26.216-0.85582-39.324-1.2837z" style="fill:#a6c1df;paint-order:markers fill stroke;stroke-linejoin:round;stroke-width:.265;stroke:#000"/>
  <path d="m78.649 55.552c-0.17514-6e-3 -0.31612 0.13457-0.31612 0.31573v23.227c0 0.18115 0.14098 0.34207 0.31612 0.36083l39.695 4.252c0.17515 0.01879 0.31614-0.12958 0.31614-0.33262v-26.034c0-0.20304-0.14099-0.37149-0.31614-0.37772-13.232-0.47052-26.463-0.94105-39.695-1.4116z" style="fill:#4981be;paint-order:markers fill stroke;stroke-linejoin:round;stroke-width:.265;stroke:#000"/>
  <path d="m76.873 56.373c-0.1766-7e-3 -0.31876 0.13542-0.31876 0.31879v23.511c0 0.18337 0.14216 0.34676 0.31876 0.36637l40.026 4.4446c0.17661 0.01961 0.31876-0.13029 0.31876-0.33612v-26.391c0-0.20584-0.14215-0.37695-0.31876-0.3837-13.342-0.50998-26.684-1.02-40.026-1.5299z" style="fill:#96b6da;paint-order:markers fill stroke;stroke-linejoin:round;stroke-width:.265;stroke:#000"/>
  <path d="m74.989 57.246c-0.17813-7e-3 -0.32152 0.13628-0.32152 0.32201v23.813c0 0.18573 0.14339 0.35175 0.32152 0.37228l40.373 4.6533c0.17814 0.0205 0.32154-0.13102 0.32154-0.33982v-26.772c0-0.2088-0.1434-0.38277-0.32154-0.39009-13.458-0.55287-26.915-1.1057-40.373-1.6586z" style="fill:#85aad3;paint-order:markers fill stroke;stroke-linejoin:round;stroke-width:.265;stroke:#000"/>
  <path d="m73.182 58.082c-0.17958-8e-3 -0.32413 0.1371-0.32413 0.32508v24.103c0 0.18798 0.14456 0.35654 0.32413 0.37797l40.701 4.8574c0.17959 0.0214 0.32415-0.13169 0.32415-0.34335v-27.139c0-0.21166-0.14456-0.38837-0.32415-0.39625-13.567-0.59496-27.134-1.1899-40.701-1.7849z" style="fill:#4076b2;paint-order:markers fill stroke;stroke-linejoin:round;stroke-width:.265;stroke:#000"/>
  <path d="m71.406 58.904c-0.18098-8e-3 -0.32666 0.13788-0.32666 0.32808v24.387c0 0.1902 0.14568 0.36127 0.32666 0.38361l41.019 5.0619c0.18098 0.0223 0.32667-0.13232 0.32667-0.3468v-27.5c0-0.21448-0.14569-0.39391-0.32667-0.40234-13.673-0.63725-27.346-1.2745-41.019-1.9118z" style="fill:#91b3d8;paint-order:markers fill stroke;stroke-linejoin:round;stroke-width:.265;stroke:#000"/>
  <path d="m95.31 56.61c-0.18223-7e-3 -0.31192 0.15633-0.32892 0.36199v3.9078l-25.172-1.2362c-0.18222-9e-3 -0.32891 0.13855-0.32891 0.33075v24.643c0 0.1922 0.14669 0.36554 0.32891 0.3887 0 0 41.301 5.2492 41.301 5.2492 0.18223 0.0232 0.32892-0.13288 0.32892-0.34989v-27.825c0-0.21701-0.14669-0.3989-0.32892-0.40785l-8.7361-0.42902v-3.9902c0-0.21166-0.147-0.38745-0.32922-0.39417l-6.7352-0.24845" style="fill:#6b98ca;paint-order:markers fill stroke;stroke-linejoin:round;stroke-width:.265;stroke:#000"/>
  <path d="m68.053 60.456c-0.18358-0.01-0.33135 0.13928-0.33135 0.33367v24.924c0 0.19439 0.14778 0.37024 0.33135 0.39433l41.608 5.4586c0.18358 0.0241 0.33136-0.13346 0.33136-0.35328v-28.184c0-0.21981-0.14778-0.40442-0.33136-0.41395-13.869-0.71968-27.739-1.4393-41.608-2.159z" style="fill:#42b96d;paint-order:markers fill stroke;stroke-linejoin:round;stroke-width:.265;stroke:#000"/>
  <path d="m66.102 61.36c-0.18506-0.0102-0.33403 0.14005-0.33403 0.33688v25.236c0 0.19682 0.14897 0.37548 0.33403 0.40062l41.943 5.6959c0.18506 0.02511 0.33404-0.13409 0.33404-0.35703v-28.585c0-0.22293-0.14898-0.41058-0.33404-0.42076-13.981-0.76913-27.962-1.5383-41.943-2.3074z" style="fill:#5fd68a;paint-order:markers fill stroke;stroke-linejoin:round;stroke-width:.265;stroke:#000"/>
  <path d="m64.383 62.155c-0.18634-0.0108-0.33635 0.14072-0.33635 0.33969v25.512c0 0.19897 0.15 0.38012 0.33635 0.40619l42.235 5.9089c0.18635 0.02609 0.33635-0.13461 0.33635-0.36031v-28.938c0-0.2257-0.15-0.41604-0.33635-0.42681l-4.4819-0.25904z" style="fill:#359357;paint-order:markers fill stroke;stroke-linejoin:round;stroke-width:.265;stroke:#000"/>
  <path d="m62.68 62.944c-0.1876-0.0114-0.33861 0.14135-0.33861 0.34245v25.784c0 0.2011 0.15101 0.38472 0.33861 0.41173l42.519 6.1234c0.1876 0.027 0.33861-0.13511 0.33861-0.36355v-29.29c0-0.22844-0.15101-0.42146-0.33861-0.43283l-4.5121-0.27335z" style="fill:#b2e3c4;paint-order:markers fill stroke;stroke-linejoin:round;stroke-width:.265;stroke:#000"/>
  <path d="m60.834 63.798c-0.18894-0.012-0.34103 0.14203-0.34103 0.34543v26.08c0 0.2034 0.15209 0.38971 0.34103 0.41778l42.823 6.3602c0.18895 0.0281 0.34104-0.13562 0.34104-0.36703v-29.672c0-0.23141-0.15209-0.42736-0.34104-0.43939l-4.5443-0.2892z" style="fill:#95d9ad;paint-order:markers fill stroke;stroke-linejoin:round;stroke-width:.265;stroke:#000"/>
  <path d="m58.897 64.695c-0.19032-0.0127-0.34353 0.1427-0.34353 0.34852v26.39c0 0.20582 0.15321 0.39498 0.34353 0.42416l43.137 6.6132c0.19033 0.0292 0.34354-0.13614 0.34354-0.37069v-30.074c0-0.23455-0.15321-0.4336-0.34354-0.44633l-4.5776-0.30617z" style="fill:#359558;paint-order:markers fill stroke;stroke-linejoin:round;stroke-width:.265;stroke:#000"/>
  <path d="m75.377 62.29c-0.19164-0.0108-0.34591 0.15794-0.34591 0.37834v4.1552l-18.007-1.2616c-0.19164-0.0134-0.34591 0.14333-0.34591 0.35149v26.69c0 0.20816 0.15427 0.40009 0.34591 0.43037 0 0 43.436 6.8624 43.436 6.8624 0.19164 0.0303 0.34591-0.1366 0.34591-0.37419v-30.464c0-0.23759-0.15427-0.43965-0.34591-0.45307l-17.653-1.2368v-4.2529c0-0.22559-0.1546-0.41588-0.34624-0.42666l-7.0833-0.39867" style="fill:#6bca8d;paint-order:markers fill stroke;stroke-linejoin:round;stroke-width:.265;stroke:#000"/>
  <path d="m55.084 66.46c-0.19298-0.0142-0.34833 0.14394-0.34833 0.35452v27.001c0 0.21059 0.15535 0.4054 0.34833 0.43684l43.74 7.1252c0.19298 0.0314 0.34833-0.13706 0.34833-0.3778v-30.869c0-0.24075-0.15535-0.44595-0.34833-0.46011l-4.6415-0.34065z" style="fill:#a1bf4d;paint-order:markers fill stroke;stroke-linejoin:round;stroke-width:.265;stroke:#000"/>
  <path d="m52.986 67.431c-0.19441-0.015-0.3509 0.14458-0.3509 0.35778v27.337c0 0.21321 0.1565 0.41115 0.3509 0.44387l44.062 7.4149c0.19441 0.0327 0.3509-0.13751 0.3509-0.3817v-31.309c0-0.24419-0.15649-0.4528-0.3509-0.46777l-4.6758-0.36023z" style="fill:#c7d995;paint-order:markers fill stroke;stroke-linejoin:round;stroke-width:.265;stroke:#000"/>
  <path d="m51.056 68.325c-0.19569-0.0157-0.35322 0.14515-0.35322 0.36076v27.645c0 0.21561 0.15753 0.41647 0.35322 0.45038l44.354 7.6862c0.19569 0.0339 0.35323-0.13789 0.35323-0.38524v-31.715c0-0.24735-0.15754-0.45913-0.35323-0.47487l-4.7067-0.37861z" style="fill:#6c822f;paint-order:markers fill stroke;stroke-linejoin:round;stroke-width:.265;stroke:#000"/>
  <path d="m49.032 69.262c-0.19702-0.0166-0.35561 0.1457-0.35561 0.36384v27.97c0 0.21814 0.1586 0.42206 0.35561 0.45725l44.654 7.9762c0.19702 0.0352 0.35561-0.13827 0.35561-0.38896v-32.142c0-0.25069-0.1586-0.4658-0.35561-0.48236l-4.7385-0.3983z" style="fill:#859f39;paint-order:markers fill stroke;stroke-linejoin:round;stroke-width:.265;stroke:#000"/>
  <path d="m47.258 70.083c-0.19815-0.0173-0.35766 0.14616-0.35766 0.36652v28.254c0 0.22036 0.15951 0.42697 0.35766 0.46331l44.912 8.2345c0.19816 0.0363 0.35767-0.13856 0.35767-0.39219v-32.518c0-0.25362-0.15951-0.47168-0.35767-0.48897l-4.7659-0.41587z" style="fill:#c2ef46;paint-order:markers fill stroke;stroke-linejoin:round;stroke-width:.265;stroke:#000"/>
  <path d="m55.671 67.119c-0.19933-0.015-0.35979 0.15827-0.35979 0.38858v4.342l-9.9239-0.89992c-0.19933-0.0181-0.35979 0.14663-0.35979 0.36932v28.553c0 0.22269 0.16046 0.43217 0.35979 0.46972 0 0 45.179 8.5115 45.179 8.5115 0.19933 0.0376 0.3598-0.13884 0.3598-0.39556v-32.915c0-0.25671-0.16046-0.4779-0.3598-0.49598l-27.167-2.4636v-4.455c0-0.23631-0.16081-0.43864-0.36014-0.45366l-7.3675-0.55529" style="fill:#b9ca6b;paint-order:markers fill stroke;stroke-linejoin:round;stroke-width:.265;stroke:#000"/>
  <path d="m43.604 71.775c-0.20043-0.0188-0.36178 0.14705-0.36178 0.37197v28.839c0 0.22492 0.16135 0.43715 0.36178 0.47589l45.429 8.7798c0.20044 0.0387 0.36179-0.13911 0.36179-0.39878v-33.295c0-0.25968-0.16135-0.48386-0.36179-0.5027l-4.8208-0.45308z" style="fill:#ba0707;paint-order:markers fill stroke;stroke-linejoin:round;stroke-width:.265;stroke:#000"/>
  <path d="m41.764 72.627c-0.20155-0.0196-0.3638 0.14745-0.3638 0.37466v29.133c0 0.22721 0.16225 0.44229 0.3638 0.48225l45.682 9.0609c0.20155 0.04 0.3638-0.13933 0.3638-0.40208v-33.688c0-0.26274-0.16225-0.49004-0.3638-0.50968l-4.8476-0.47231z" style="fill:#f71c1c;paint-order:markers fill stroke;stroke-linejoin:round;stroke-width:.265;stroke:#000"/>
  <path d="m39.949 73.467c-0.20263-0.0204-0.36575 0.14782-0.36575 0.3773v29.424c0 0.22948 0.16312 0.44738 0.36575 0.4886l45.926 9.3427c0.20263 0.0412 0.36575-0.13953 0.36575-0.40531v-34.078c0-0.26578-0.16312-0.49617-0.36575-0.51661l-4.8736-0.49163z" style="fill:#fb8888;paint-order:markers fill stroke;stroke-linejoin:round;stroke-width:.265;stroke:#000"/>
  <path d="m38.019 74.361c-0.20376-0.0213-0.36778 0.14819-0.36778 0.38008v29.733c0 0.23189 0.16402 0.45281 0.36778 0.49538l46.181 9.6471c0.20376 0.0426 0.36778-0.13972 0.36778-0.40873v-34.493c0-0.26901-0.16402-0.5027-0.36778-0.52401l-4.9007-0.51254z" style="fill:#de0808;paint-order:markers fill stroke;stroke-linejoin:round;stroke-width:.265;stroke:#000"/>
  <path d="m73.538 79.239-37.336-4.0369c-0.20479-0.0221-0.36965 0.14852-0.36965 0.38268v30.024c0 0.23417 0.16486 0.45795 0.36965 0.5018l46.417 9.9384c0.2048 0.0438 0.36965-0.13986 0.36965-0.41192v-34.885c0-0.27207-0.16486-0.5089-0.36965-0.53104l-0.7711-0.0834z" style="fill:#f1a1a1;paint-order:markers fill stroke;stroke-linejoin:round;stroke-width:.265;stroke:#000"/>
  <path d="m34.184 76.136c-0.20592-0.0231-0.37168 0.14884-0.37168 0.38552v30.347c0 0.23668 0.16576 0.46367 0.37168 0.50896l46.672 10.267c0.20592 0.0453 0.37169-0.13999 0.37169-0.41546v-35.322c0-0.27548-0.16576-0.5158-0.37169-0.53889l-4.9527-0.5552z" style="fill:#e44b4b;paint-order:markers fill stroke;stroke-linejoin:round;stroke-width:.265;stroke:#000"/>
  <path d="m33.239 72.479c-0.20727-0.0207-0.37412 0.15671-0.37412 0.39777v4.5447l-1.1628-0.13613c-0.20727-0.02429-0.37412 0.14921-0.37412 0.38899v30.744c0 0.23978 0.16685 0.4707 0.37412 0.51782l46.977 10.678c0.20727 0.0471 0.37412-0.14009 0.37412-0.41978v-35.861c0-0.27969-0.16685-0.52435-0.37412-0.54862l-37.405-4.3791v-4.6773c0-0.24809-0.16721-0.46448-0.37447-0.48516l-7.6608-0.76454" style="fill:#ff8080;paint-order:markers fill stroke;stroke-linejoin:round;stroke-width:.265;stroke:#000"/>
  <path d="m80.309 87.124v34.411l48.267-43.766v-23.872z" style="fill-rule:evenodd;fill:url(#linearGradient16773);paint-order:markers fill stroke;stroke-linejoin:round;stroke-width:.302;stroke:#000"/>
  <path d="m30.174 80.635 50.134 6.4888v34.411l-50.134-10.277z" style="fill-rule:evenodd;fill:url(#linearGradient16781);paint-order:markers fill stroke;stroke-linejoin:round;stroke-width:.302;stroke:#000"/>
 </g>
</svg>
